<svg xmlns="http://www.w3.org/2000/svg" viewBox="0 0 360 60" height="60" width="360"><path d="M.442 58.667c-.295-.333-.442-.75-.442-1.25l.147-.75 17.695-53.75c.49-1.388 1.375-2.083 2.654-2.083h8.11c1.277 0 2.162.695 2.654 2.083l17.694 53.75.148.75c0 .5-.16.917-.48 1.25-.32.334-.676.5-1.069.5h-6.561c-1.032 0-1.746-.527-2.138-1.583L35.462 47.5H13.64l-3.391 10.083c-.394 1.056-1.106 1.583-2.138 1.583H1.548c-.442 0-.81-.166-1.106-.5zM16.22 37.834h16.662L24.55 12.167zm51.533 20.75c-.344-.388-.516-.86-.516-1.417V11.251h-13.64c-.49 0-.91-.195-1.252-.584-.345-.388-.517-.888-.517-1.5v-6.25c0-.61.16-1.11.48-1.5.319-.388.748-.583 1.29-.583h37.674c.54 0 .983.195 1.327.583.343.39.516.89.516 1.5v6.25c0 .612-.173 1.112-.516 1.5-.345.39-.787.584-1.327.584H77.706v45.916c0 .556-.16 1.029-.479 1.417-.32.39-.75.583-1.29.583h-6.93c-.492 0-.91-.194-1.254-.583zm33.287 0c-.32-.388-.48-.888-.48-1.5V2.917c0-.61.16-1.11.48-1.5.319-.388.748-.583 1.29-.583h6.856c.491 0 .91.195 1.254.583.343.39.516.89.516 1.5v38.084l24.108-38.75c.443-.945 1.154-1.417 2.138-1.417h6.193c.54 0 .97.195 1.29.583.32.39.48.89.48 1.5v54.25c0 .556-.16 1.029-.48 1.417-.32.39-.75.583-1.29.583h-6.783c-.541 0-.983-.194-1.327-.583-.344-.388-.516-.86-.516-1.417v-37.25l-24.034 37.834c-.492.945-1.205 1.416-2.138 1.416h-6.267c-.542 0-.971-.194-1.29-.583zm59.79-4.459c-3.712-3.917-5.69-9.485-5.935-16.708-.05-1.5-.074-3.945-.074-7.334 0-3.444.025-5.944.074-7.5.245-7.11 2.236-12.652 5.972-16.625C164.602 1.987 169.837 0 176.571 0c4.373 0 8.183.847 11.427 2.542 3.244 1.695 5.762 4.014 7.557 6.958 1.794 2.945 2.74 6.25 2.838 9.917v.166c0 .446-.16.82-.479 1.125-.32.306-.676.459-1.069.459h-7.151c-.59 0-1.032-.152-1.327-.459-.295-.304-.542-.846-.738-1.625-.737-3.443-2.015-5.875-3.833-7.291-1.819-1.417-4.228-2.125-7.225-2.125-7.03 0-10.69 4.445-10.986 13.333-.049 1.5-.073 3.806-.073 6.917 0 3.112.024 5.473.073 7.083.295 8.89 3.956 13.333 10.986 13.333 2.949 0 5.345-.708 7.188-2.125 1.843-1.416 3.133-3.846 3.87-7.291.196-.778.443-1.32.738-1.625.295-.305.737-.459 1.327-.459h7.151c.443 0 .823.167 1.143.5.319.334.454.75.405 1.25-.099 3.667-1.045 6.973-2.838 9.917-1.795 2.945-4.313 5.264-7.557 6.958-3.244 1.696-7.054 2.542-11.427 2.542-6.783 0-12.03-1.958-15.74-5.875zm58.207 4.459c-.344-.388-.516-.86-.516-1.417V11.251h-13.64c-.491 0-.91-.195-1.253-.584-.344-.388-.516-.888-.516-1.5v-6.25c0-.61.159-1.11.48-1.5.318-.388.748-.583 1.29-.583h37.673c.54 0 .983.195 1.328.583.343.39.516.89.516 1.5v6.25c0 .612-.173 1.112-.516 1.5-.345.39-.787.584-1.328.584H228.99v45.916c0 .556-.16 1.029-.48 1.417-.32.39-.75.583-1.29.583h-6.93c-.492 0-.91-.194-1.253-.583z" fill="#ff8671"/><path d="M251.033 58.584c-.345-.388-.516-.86-.516-1.417v-8.416c0-.555.171-1.028.516-1.417.343-.388.761-.583 1.253-.583h7.447c.49 0 .908.195 1.253.583.343.39.516.862.516 1.417v8.416c0 .556-.16 1.029-.48 1.417-.32.39-.749.583-1.29.583h-7.446c-.491 0-.91-.194-1.253-.583zm20.791 0c-.345-.388-.516-.86-.516-1.417V2.917c0-.61.159-1.11.48-1.5.318-.388.748-.583 1.29-.583h19.758c5.947 0 10.617 1.583 14.008 4.75 3.39 3.167 5.087 7.778 5.087 13.833 0 6-1.696 10.542-5.087 13.625-3.39 3.084-8.061 4.625-14.008 4.625h-10.838v19.5c0 .612-.172 1.098-.516 1.459-.344.361-.787.541-1.327.541h-7.078c-.491 0-.91-.194-1.253-.583zm20.643-30.25c2.85 0 5.025-.764 6.525-2.292 1.5-1.528 2.249-3.763 2.249-6.709 0-2.888-.725-5.138-2.175-6.75-1.45-1.61-3.65-2.416-6.599-2.416h-10.616v18.166zm67.091-27c.295.333.442.723.442 1.167 0 .555-.1 1.028-.295 1.416l-14.82 38.25c-1.72 4.445-3.293 7.834-4.717 10.167-1.427 2.333-3.159 4.056-5.198 5.167-2.04 1.111-4.707 1.666-8 1.666h-3.464c-.493 0-.91-.194-1.254-.583-.344-.388-.516-.86-.516-1.417v-6.333c0-.555.172-1.028.516-1.417.344-.388.761-.583 1.254-.583h2.727c1.67 0 3.084-.5 4.24-1.5 1.154-1 2.273-2.667 3.354-5L315.175 3.5c-.1-.445-.148-.722-.148-.834 0-.5.16-.93.48-1.291.318-.36.7-.542 1.142-.542h7.372c.836 0 1.475.529 1.917 1.583l12.976 27.334 10.543-27.334c.343-1.054 1.032-1.583 2.064-1.583h6.93c.443 0 .811.166 1.107.5z" fill="#4784b3"/></svg>