<svg xmlns="http://www.w3.org/2000/svg" viewBox="0 0 1000 632.707" height="632.707" width="1000"><g clip-rule="evenodd" fill-rule="evenodd"><path d="M0 632.707h1000V0H0z" fill="#1b3771"/><path d="M500.808 518.492c48.251 43.978 113.134 70.777 183.382 70.777 151.205 0 273.454-122.255 273.454-273.465 0-150.665-122.243-273.454-273.454-273.454-70.248 0-135.125 26.811-183.382 70.778-55.232 50.396-90.083 122.249-90.083 202.677-.001 80.444 34.85 152.826 90.083 202.687z" fill="#e9b040"/><path d="M589.276 286.86a272.05 272.05 0 00-4.825-28.951H417.16a290.602 290.602 0 018.046-28.956h151.205a323.006 323.006 0 00-11.26-28.956h-128.69a388.691 388.691 0 0116.086-28.956h96.513a180.113 180.113 0 00-20.905-28.951h-54.698c8.046-10.191 17.696-19.841 27.346-28.951-48.257-43.972-112.604-70.777-183.382-70.777-151.205 0-273.46 122.789-273.46 273.454 0 151.205 122.255 273.465 273.46 273.465 70.778 0 135.12-26.805 183.382-70.777 9.645-9.115 19.306-18.76 27.881-28.951h-55.233a285.683 285.683 0 01-20.911-28.951h96.519a252.177 252.177 0 0016.091-28.962H436.46a231.989 231.989 0 01-11.26-28.95h151.205a294.141 294.141 0 008.046-28.962 273.789 273.789 0 004.825-28.951 261.44 261.44 0 000-57.917z" fill="#cc2131"/><path d="M408.044 394.639c-9.115 2.68-15.551 3.755-22.521 3.755-13.94 0-22.521-8.58-22.521-24.672 0-3.209.535-6.435 1.07-10.179l1.605-10.726 1.61-9.127 12.871-77.207h28.416l-3.215 17.155h17.696l-4.29 28.421h-17.69l-8.046 46.111c0 1.61-.535 3.209-.535 4.29 0 5.901 3.215 8.581 10.191 8.581 3.755 0 5.9-.535 9.115-1.075zm91.689-1.081a100.923 100.923 0 01-30.567 4.836c-31.636 0-50.402-17.161-50.402-50.407 0-38.601 21.986-67.557 52.012-67.557 24.131 0 39.676 16.086 39.676 41.286 0 8.046-1.07 16.091-3.744 27.881H447.72v3.22c0 13.4 8.58 19.835 25.736 19.835 10.726 0 20.376-2.145 31.101-6.97zm-17.696-67.022v-5.354c0-9.115-5.36-14.475-13.94-14.475-9.65 0-16.085 6.97-18.765 19.835h32.706l-.001-.01zm-300.806 69.713H151.74l17.161-106.704-38.072 106.704h-20.37l-2.145-106.169-18.236 106.169H61.662l23.056-138.881h42.356l1.616 85.793 28.416-85.793h47.187zm71.318-50.407c-3.215 0-3.755-.535-5.9-.535-16.62 0-25.201 6.435-25.201 17.161 0 7.499 4.284 11.801 10.72 11.801 14.481 0 19.841-11.807 20.381-28.427zm23.591 50.407h-25.736l.535-11.801c-6.435 9.115-15.016 13.946-31.101 13.946-14.475 0-26.271-12.871-26.271-31.107 0-5.354 1.07-10.179 2.139-14.47 4.825-17.701 22.521-28.427 49.332-28.962 3.215 0 8.58 0 12.865.535 1.07-3.744 1.07-5.354 1.07-7.499 0-7.505-5.895-9.65-19.835-9.65-8.58 0-17.69 1.61-24.666 3.215l-3.75 1.61h-2.145l4.29-25.201c13.94-4.29 23.591-5.901 34.316-5.901 25.736 0 39.141 11.26 39.141 33.246 0 5.354.535 9.645-1.61 21.98l-5.895 40.217-1.07 6.97-1.07 5.889v3.755zM642.363 284.72c8.034 0 15.545 2.139 26.271 7.505l4.825-30.567c-2.68-1.07-3.221-1.07-6.97-2.68l-12.336-2.68c-3.755-1.07-8.046-1.605-13.4-1.605-14.481 0-23.062 0-32.171 5.895-4.825 2.68-10.726 6.97-17.69 14.481l-3.221-1.075-30.561 21.451 1.61-11.795h-31.642l-17.69 112.604h29.497l10.726-60.587s4.29-8.58 6.435-11.266c5.354-6.97 10.179-6.97 16.08-6.97h2.145c-.535 6.435-1.075 13.946-1.075 21.451 0 36.996 20.916 60.057 53.087 60.057 8.046 0 15.016-1.075 25.736-4.29l5.354-31.642c-9.644 4.836-17.69 6.97-25.195 6.97-17.161 0-27.352-12.324-27.352-33.776 0-30.035 15.01-51.481 37.537-51.481zm250.393-27.352l-6.435 39.682c-6.97-10.726-15.545-15.551-26.805-15.551-15.545 0-30.026 8.58-39.141 25.201l-18.771-11.26 1.61-11.795h-31.642l-18.225 112.604h30.026l9.645-60.587s7.511-8.581 9.656-11.266c4.29-5.354 9.115-6.97 12.871-6.97a105.31 105.31 0 00-5.366 33.252c0 28.416 15.016 47.176 36.461 47.176 10.725 0 19.306-3.744 27.352-12.859l-1.61 11.26h28.416l22.526-138.881h-30.566v-.01zm-35.915 112.064c-10.191 0-15.016-6.97-15.016-21.98 0-21.98 9.115-38.066 23.05-38.066 10.191 0 15.556 8.04 15.556 22.521 0 21.98-9.656 37.525-23.59 37.525zm-136.736-23.59c-3.209 0-3.744-.535-5.889-.535-16.626 0-25.207 6.435-25.207 17.161 0 7.499 4.29 11.801 10.726 11.801 14.475 0 19.835-11.807 20.37-28.427zm23.591 50.407h-25.724l.535-11.801c-6.435 9.115-15.016 13.946-31.107 13.946-14.47 0-27.34-12.336-27.34-31.107.535-26.805 20.37-43.432 52.541-43.432 3.22 0 8.58 0 12.871.535 1.075-3.744 1.075-5.354 1.075-7.499 0-7.505-5.901-9.65-19.847-9.65-8.58 0-18.225 1.61-24.66 3.215l-4.29 1.61h-1.61l4.29-25.201c13.946-4.29 23.591-5.901 34.316-5.901 25.736 0 39.141 11.26 39.141 33.246 0 5.354.535 9.645-1.61 21.98l-5.889 40.217-1.075 6.97-1.07 5.889-.546 3.755v3.228zm-405.894-88.473c5.901 0 13.94.535 22.521 1.61l4.29-26.276c-8.58-1.07-19.835-2.145-26.805-2.145-32.712 0-43.966 17.696-43.966 38.606 0 13.4 6.43 23.591 21.98 30.561 12.33 5.9 14.475 6.982 14.475 11.801 0 6.97-6.435 11.26-18.231 11.26-8.575 0-16.62-1.61-26.276-4.29l-3.215 25.736h.541l5.36 1.075c1.604.535 4.29 1.07 7.505 1.07 7.505 1.07 13.4 1.07 17.155 1.07 32.712 0 46.652-12.324 46.652-37.531 0-15.545-7.505-24.66-22.521-31.096-12.33-5.9-13.94-6.435-13.94-11.801 0-5.36 5.36-9.65 14.475-9.65z" fill="#1b3771"/><path d="M681.504 253.084l-4.836 30.026c-10.726-5.36-18.225-7.505-26.271-7.505-22.515 0-38.06 21.451-38.06 52.012 0 20.916 10.726 33.776 27.87 33.776 7.511 0 15.556-2.134 25.207-6.97l-5.354 31.642c-10.726 2.68-17.69 3.755-26.271 3.755-31.642 0-51.477-22.526-51.477-59.523 0-49.867 27.34-84.177 66.482-84.177 5.366 0 9.656.535 13.411 1.07l12.324 3.215c3.755 1.603 4.289 1.603 6.975 2.679zm-94.903 20.911c-1.075-.535-2.145-.535-3.22-.535-9.645 0-15.016 4.825-24.125 18.231l2.68-17.161h-27.34l-17.702 113.139h29.497c10.726-69.167 13.4-80.968 27.881-80.968h2.145c2.68-13.406 5.901-23.591 11.26-32.712h-1.075v.01zM415.55 386.058c-8.046 2.68-14.475 3.755-21.451 3.755-15.016 0-23.591-8.58-23.591-24.672 0-3.209.535-6.435 1.07-10.179l1.605-11.266 1.61-8.58 12.871-77.207h29.491l-3.215 16.62h15.016l-4.29 27.881h-15.01l-8.046 46.652c0 2.145-.535 3.755-.535 4.825 0 5.901 3.215 8.58 10.191 8.58 3.755 0 5.9-.535 8.046-1.075zm-114.209-75.602c0 13.935 6.97 24.125 22.521 31.096 12.33 5.9 13.94 7.511 13.94 12.871 0 6.97-5.36 10.191-17.161 10.191-8.58 0-16.62-1.61-26.276-4.825l-4.29 26.271h1.61l5.366 1.075a24.868 24.868 0 007.505 1.07c6.97.535 12.871 1.07 16.62 1.07 31.101 0 45.577-11.79 45.577-37.531 0-15.545-5.895-24.66-20.911-31.642-12.336-5.354-13.94-6.964-13.94-11.79 0-6.435 4.825-9.65 14.475-9.65 5.901 0 13.94 1.07 21.445 2.145l4.29-26.276c-7.505-1.07-19.306-2.145-26.271-2.145-33.24 0-44.5 17.159-44.5 38.07zm606.977 77.213h-28.416l1.599-11.26c-8.046 8.58-16.626 12.324-27.352 12.324-21.44 0-35.915-18.225-35.915-46.641 0-37.537 21.98-69.173 48.251-69.173 11.801 0 20.381 4.825 28.416 15.551l6.435-39.682h29.497zm-43.978-26.817c13.946 0 23.591-15.545 23.591-38.06 0-13.946-5.354-21.986-15.545-21.986-13.4 0-23.061 15.545-23.061 38.066-.001 14.48 4.824 21.98 15.015 21.98zm-358.178 24.137c-10.185 3.209-19.835 4.825-30.561 4.825-33.247 0-50.402-17.702-50.402-50.407 0-39.135 21.986-67.557 52.012-67.557 24.131 0 39.676 16.086 39.676 41.286 0 8.046-1.07 16.091-3.209 27.881h-58.982c-.541 1.61-.541 2.145-.541 3.22 0 12.871 8.581 19.835 26.276 19.835 10.191 0 19.841-2.145 30.567-6.97zm-16.615-67.034v-5.895c0-9.115-4.831-14.475-13.94-14.475-9.11 0-16.086 7.505-18.766 20.37zm-300.805 69.714h-29.491l17.155-106.704-38.072 106.704h-20.37L115.819 281.5 97.588 387.669H70.242l23.056-138.881h42.356l1.61 85.793 28.421-85.793h46.111zm73.457-50.408c-3.221-.535-4.825-.535-6.97-.535-16.62 0-25.201 5.901-25.201 17.161 0 6.97 4.285 11.801 10.72 11.801 12.336 0 20.916-11.801 21.451-28.427zm21.446 50.408h-24.666l.541-11.801c-7.505 9.127-17.161 13.4-31.101 13.4-16.086 0-26.811-12.324-26.811-30.561 0-27.34 18.771-43.432 52.012-43.432 3.215 0 7.505 0 11.795.535 1.07-3.215 1.07-4.819 1.07-6.964 0-7.505-4.825-10.191-18.766-10.191-8.581 0-18.231 1.07-24.666 3.215l-4.29 1.07-2.68.535 4.29-25.201c15.01-4.29 24.66-5.901 35.386-5.901 25.736 0 39.141 11.26 39.141 32.712 0 5.901-.541 10.185-2.686 22.521l-5.895 40.217-1.07 6.97-.541 5.889-.535 3.755zm446.116-50.408c-3.209-.535-4.825-.535-6.97-.535-16.626 0-25.207 5.901-25.207 17.161 0 6.97 4.29 11.801 10.726 11.801 11.795 0 20.916-11.801 21.451-28.427zm21.445 50.408h-24.66l.535-11.801c-7.511 9.127-17.69 13.4-31.107 13.4-16.08 0-27.34-12.324-27.34-30.561 0-27.34 19.306-43.432 52.541-43.432 3.209 0 7.511 0 11.79.535 1.075-3.215 1.075-4.819 1.075-6.964 0-7.505-4.825-10.191-18.771-10.191-8.58 0-18.225 1.07-24.66 3.215l-4.29 1.07-2.68.535 4.29-25.201c15.004-4.29 24.66-5.901 35.386-5.901 25.736 0 39.141 11.26 39.141 32.712 0 5.901-.535 10.185-2.68 22.521l-5.901 40.217-1.07 6.97-1.075 5.889-.535 3.755v3.232zm79.364-113.674c-.546-.535-1.61-.535-2.691-.535-9.645 0-15.545 4.825-24.66 18.231l2.68-17.161h-26.805l-18.236 113.139h30.026c10.191-69.167 13.411-80.968 27.352-80.968h2.145c2.68-13.406 6.435-23.591 11.26-32.712h-1.07l-.001.01z" fill="#fff"/></g></svg>