<?xml version="1.0" encoding="utf-8"?><svg xmlns="http://www.w3.org/2000/svg" xmlns:xlink="http://www.w3.org/1999/xlink"><symbol viewBox="0 0 32 32" id="add" xmlns="http://www.w3.org/2000/svg"><path d="M16 0C7.163 0 0 7.163 0 16s7.163 16 16 16 16-7.163 16-16S24.837 0 16 0zm7.314 17.714h-5.6v5.6a1.714 1.714 0 01-3.428 0v-5.6h-5.6a1.714 1.714 0 010-3.428h5.6v-5.6a1.714 1.714 0 013.428 0v5.6h5.6a1.714 1.714 0 010 3.428z"/></symbol><symbol viewBox="0 0 32 32" id="angle-down" xmlns="http://www.w3.org/2000/svg"><path d="M31.099 7.443a3.078 3.078 0 00-4.351 0L16 18.191 5.252 7.443a3.078 3.078 0 00-4.351 4.351l12.924 12.924a3.074 3.074 0 002.176.901c.787 0 1.575-.3 2.175-.901L31.1 11.794a3.078 3.078 0 000-4.351z"/></symbol><symbol viewBox="0 0 32 32" id="angle-left" xmlns="http://www.w3.org/2000/svg"><path d="M24.637 31.179a3.078 3.078 0 000-4.351L13.889 16.08 24.637 5.332A3.078 3.078 0 0020.286.981L7.362 13.905a3.074 3.074 0 00-.901 2.176c0 .787.3 1.575.901 2.175L20.286 31.18a3.078 3.078 0 004.351 0z"/></symbol><symbol viewBox="0 0 32 32" id="angle-right" xmlns="http://www.w3.org/2000/svg"><path d="M7.363 31.179a3.078 3.078 0 010-4.351L18.111 16.08 7.363 5.332A3.078 3.078 0 0111.714.981l12.924 12.924a3.074 3.074 0 01.901 2.176c0 .787-.3 1.575-.901 2.175L11.714 31.18a3.078 3.078 0 01-4.351 0z"/></symbol><symbol viewBox="0 0 32 32" id="angle-up" xmlns="http://www.w3.org/2000/svg"><path d="M31.099 24.717a3.078 3.078 0 01-4.351 0L16 13.969 5.252 24.717a3.078 3.078 0 01-4.351-4.351L13.825 7.442a3.074 3.074 0 012.176-.901c.787 0 1.575.3 2.175.901L31.1 20.366a3.078 3.078 0 010 4.351z"/></symbol><symbol viewBox="0 0 28 32" id="burger" xmlns="http://www.w3.org/2000/svg"><path d="M26.921 17.27H1.524a1.524 1.524 0 110-3.048h25.397a1.524 1.524 0 110 3.048zm0-10.667H1.524a1.524 1.524 0 110-3.048h25.397a1.524 1.524 0 110 3.048zm0 21.333H1.524a1.524 1.524 0 110-3.048h25.397a1.524 1.524 0 110 3.048z"/></symbol><symbol viewBox="0 0 28 32" id="filter" xmlns="http://www.w3.org/2000/svg"><path d="M26.921 3.86H14.523a5.333 5.333 0 00-10.252 0H1.524a1.524 1.524 0 100 3.048H4.3a5.335 5.335 0 0010.194 0h12.427a1.524 1.524 0 100-3.048zM9.397 7.619c-1.26 0-2.286-1.025-2.286-2.286s1.025-2.286 2.286-2.286c1.26 0 2.286 1.025 2.286 2.286s-1.025 2.286-2.286 2.286zm17.524 6.908h-.716a5.333 5.333 0 00-10.252 0H1.523a1.524 1.524 0 100 3.048h14.459a5.335 5.335 0 0010.194 0h.744a1.524 1.524 0 100-3.048zm-5.842 3.759c-1.26 0-2.286-1.025-2.286-2.286s1.025-2.286 2.286-2.286c1.26 0 2.286 1.025 2.286 2.286s-1.025 2.286-2.286 2.286zm5.842 6.908h-14.43a5.333 5.333 0 00-10.252 0h-.716a1.524 1.524 0 100 3.048h.744a5.335 5.335 0 0010.194 0H26.92a1.524 1.524 0 100-3.048zM7.365 28.952c-1.26 0-2.286-1.025-2.286-2.286s1.025-2.286 2.286-2.286c1.26 0 2.286 1.025 2.286 2.286s-1.025 2.286-2.286 2.286z"/></symbol><symbol viewBox="0 0 32 32" id="plus" xmlns="http://www.w3.org/2000/svg"><path d="M28.962 12.962h-9.924V3.038a3.038 3.038 0 10-6.076 0v9.924H3.038a3.038 3.038 0 100 6.076h9.924v9.924a3.038 3.038 0 106.076 0v-9.924h9.924a3.038 3.038 0 100-6.076z"/></symbol><symbol viewBox="0 0 32 32" id="search" xmlns="http://www.w3.org/2000/svg"><path d="M31.498 29.074l-6.95-6.95a13.655 13.655 0 002.881-8.409c0-7.574-6.14-13.714-13.714-13.714S.001 6.141.001 13.715c0 7.574 6.14 13.714 13.714 13.714 3.169 0 6.087-1.076 8.409-2.881l6.95 6.95c.335.335.773.502 1.212.502s.878-.167 1.212-.502c.67-.669.67-1.755 0-2.424zM3.429 13.714c0-5.672 4.614-10.286 10.286-10.286s10.286 4.614 10.286 10.286S19.387 24 13.715 24 3.429 19.386 3.429 13.714z"/></symbol></svg>