<svg xmlns="http://www.w3.org/2000/svg" viewBox="0 0 1000 632.708" height="632.708" width="1000"><path d="M983.01 632.708H0V0h1000v632.707h-16.99z" fill="#1d5b99"/><path d="M983.01 616.738H16.99V15.97h966.02z" clip-rule="evenodd" fill="#fff" fill-rule="evenodd"/><path d="M366.132 413.919l62.738-194.428h55.978l-62.743 194.428zm-25.024-194.375l-50.356 82.424c-12.814 21.59-20.313 32.495-23.915 46.127h-.768c.893-17.285-1.673-38.522-1.912-50.523l-5.565-78.028h-94.226l-.962 5.23c24.205 0 38.561 11.429 42.51 34.81l18.367 154.334h57.992l117.264-194.375h-58.429zm435.316 194.375l-1.542-28.912-69.89-.053-14.305 28.965h-60.769L740.116 219.86h74.59l18.657 194.059zm-6.412-114.69c-.632-14.37-1.144-33.869-.114-45.678h-.825c-3.403 9.653-18.037 38.64-24.473 52.892l-20.825 42.613h49.076zM543.614 419.443c-39.517 0-65.748-11.782-84.468-22.291l26.663-38.271c16.814 8.835 30.009 19.034 60.382 19.034 9.758 0 19.17-2.38 24.518-11.081 7.778-12.637-1.798-19.451-23.659-31.083l-10.8-6.599c-32.416-20.815-46.442-40.592-31.181-75.108 9.77-22.077 35.517-38.816 78.015-38.816 29.292 0 56.769 11.915 72.769 23.553l-30.652 33.789c-15.625-11.873-28.569-17.879-43.386-17.879-11.812 0-20.791 4.284-23.892 10.06-5.832 10.857 1.889 18.258 18.925 28.195l12.836 7.68c39.363 23.333 48.729 47.796 38.874 70.658-16.978 39.378-50.196 48.159-84.944 48.159z" clip-rule="evenodd" fill="#1d5b99" fill-rule="evenodd"/><path d="M959.226 474.303H42.476v115.288h916.75z" clip-rule="evenodd" fill="#e7a83a" fill-rule="evenodd"/><path d="M957.524 44.716H40.78v115.293h916.744z" clip-rule="evenodd" fill="#1d5b99" fill-rule="evenodd"/></svg>