<!-- Generated by IcoMoon.io -->
<svg version="1.1" xmlns="http://www.w3.org/2000/svg" width="32" height="32" viewBox="0 0 32 32">
<title>add</title>
<path d="M16 0c-8.837 0-16 7.163-16 16s7.163 16 16 16c8.837 0 16-7.163 16-16s-7.163-16-16-16zM23.314 17.714h-5.6v5.6c0 0.947-0.768 1.714-1.714 1.714s-1.714-0.768-1.714-1.714v-5.6h-5.6c-0.947 0-1.714-0.768-1.714-1.714s0.768-1.714 1.714-1.714h5.6v-5.6c0-0.947 0.768-1.714 1.714-1.714s1.714 0.768 1.714 1.714v5.6h5.6c0.947 0 1.714 0.768 1.714 1.714s-0.768 1.714-1.714 1.714z"></path>
</svg>
