<!-- Generated by IcoMoon.io -->
<svg version="1.1" xmlns="http://www.w3.org/2000/svg" width="28" height="32" viewBox="0 0 28 32">
<title>arrow-up</title>
<path d="M14.001 2c-0.484 0-0.969 0.184-1.338 0.552l-6.797 6.797c-0.595 0.594-0.595 1.561 0 2.154 0.595 0.596 1.56 0.596 2.155 0l4.456-4.455v21.452c0 0.829 0.682 1.5 1.524 1.5s1.524-0.671 1.524-1.5v-21.45l4.455 4.454c0.595 0.596 1.56 0.596 2.154 0 0.298-0.297 0.447-0.688 0.447-1.077s-0.149-0.78-0.447-1.077l-6.798-6.799c-0.365-0.364-0.844-0.546-1.323-0.549-0.004-0.001-0.008-0.002-0.012-0.002 0 0 0 0 0 0z"></path>
</svg>
