<!-- Generated by IcoMoon.io -->
<svg version="1.1" xmlns="http://www.w3.org/2000/svg" width="28" height="32" viewBox="0 0 28 32">
<title>arrow-right</title>
<path d="M28 16.001c0-0.484-0.184-0.969-0.552-1.338l-6.797-6.797c-0.594-0.595-1.561-0.595-2.154 0-0.596 0.595-0.596 1.56 0 2.155l4.455 4.456h-21.452c-0.829 0-1.5 0.682-1.5 1.524s0.671 1.524 1.5 1.524h21.45l-4.454 4.455c-0.596 0.595-0.596 1.56 0 2.154 0.297 0.298 0.688 0.447 1.077 0.447s0.78-0.149 1.077-0.447l6.799-6.798c0.364-0.365 0.546-0.844 0.549-1.323 0.001-0.004 0.002-0.008 0.002-0.012 0 0 0 0 0 0z"></path>
</svg>
