<!-- Generated by IcoMoon.io -->
<svg version="1.1" xmlns="http://www.w3.org/2000/svg" width="28" height="32" viewBox="0 0 28 32">
<title>Burger</title>
<path d="M26.917 17.524h-25.397c-0.842 0-1.524-0.682-1.524-1.524v0c0-0.842 0.682-1.524 1.524-1.524h25.397c0.842 0 1.524 0.682 1.524 1.524v0c0 0.842-0.682 1.524-1.524 1.524z"></path>
<path d="M26.917 6.857h-25.397c-0.842 0-1.524-0.682-1.524-1.524v0c0-0.842 0.682-1.524 1.524-1.524h25.397c0.842 0 1.524 0.682 1.524 1.524v0c0 0.842-0.682 1.524-1.524 1.524z"></path>
<path d="M26.917 28.19h-25.397c-0.842 0-1.524-0.682-1.524-1.524v0c0-0.842 0.682-1.524 1.524-1.524h25.397c0.842 0 1.524 0.682 1.524 1.524v0c0 0.842-0.682 1.524-1.524 1.524z"></path>
</svg>
