<!-- Generated by IcoMoon.io -->
<svg version="1.1" xmlns="http://www.w3.org/2000/svg" width="32" height="32" viewBox="0 0 32 32">
<title>filter-alt</title>
<path d="M29.161 5.899h-26.322c-0.962 0-1.743-0.78-1.743-1.743v-0.009c0-0.962 0.781-1.743 1.743-1.743h26.322c0.962 0 1.743 0.781 1.743 1.743v0.009c0 0.963-0.781 1.743-1.743 1.743z"></path>
<path d="M29.748 8.93h-27.496c-1.267 0-1.49 0.644-0.499 1.431l8.832 7.008v11.399c0 0.666 0.502 0.998 1.116 0.739l9.224-3.906c0.269-0.113 0.49-0.447 0.49-0.739v-7.493l8.832-7.008c0.992-0.786 0.767-1.431-0.499-1.431z"></path>
</svg>
