<!-- Generated by IcoMoon.io -->
<svg version="1.1" xmlns="http://www.w3.org/2000/svg" width="28" height="32" viewBox="0 0 28 32">
<title>filter</title>
<path d="M26.921 3.86h-12.398c-0.639-2.229-2.691-3.86-5.126-3.86s-4.486 1.632-5.126 3.86h-2.747c-0.842 0-1.524 0.682-1.524 1.524s0.682 1.524 1.524 1.524h2.776c0.672 2.177 2.699 3.759 5.097 3.759s4.425-1.582 5.097-3.759h12.427c0.842 0 1.524-0.682 1.524-1.524s-0.682-1.524-1.524-1.524zM9.397 7.619c-1.26 0-2.286-1.025-2.286-2.286s1.025-2.286 2.286-2.286c1.26 0 2.286 1.025 2.286 2.286s-1.025 2.286-2.286 2.286z"></path>
<path d="M26.921 14.527h-0.716c-0.639-2.229-2.691-3.86-5.126-3.86s-4.486 1.632-5.126 3.86h-14.43c-0.842 0-1.524 0.682-1.524 1.524s0.682 1.524 1.524 1.524h14.459c0.672 2.177 2.699 3.759 5.097 3.759s4.425-1.582 5.097-3.759h0.744c0.842 0 1.524-0.682 1.524-1.524s-0.682-1.524-1.524-1.524zM21.079 18.286c-1.26 0-2.286-1.025-2.286-2.286s1.025-2.286 2.286-2.286c1.26 0 2.286 1.025 2.286 2.286s-1.025 2.286-2.286 2.286z"></path>
<path d="M26.921 25.194h-14.43c-0.639-2.229-2.691-3.86-5.126-3.86s-4.486 1.632-5.126 3.86h-0.716c-0.842 0-1.524 0.682-1.524 1.524s0.682 1.524 1.524 1.524h0.744c0.672 2.177 2.699 3.759 5.097 3.759s4.425-1.582 5.097-3.759h14.459c0.842 0 1.524-0.682 1.524-1.524s-0.682-1.524-1.524-1.524zM7.365 28.952c-1.26 0-2.286-1.025-2.286-2.286s1.025-2.286 2.286-2.286c1.26 0 2.286 1.025 2.286 2.286s-1.025 2.286-2.286 2.286z"></path>
</svg>
