<!-- Generated by IcoMoon.io -->
<svg version="1.1" xmlns="http://www.w3.org/2000/svg" width="32" height="32" viewBox="0 0 32 32">
<title>geo</title>
<path d="M15.999 1.5c-5.886 0-10.676 4.789-10.676 10.677 0 1.536 0.314 3.002 0.934 4.358 2.669 5.841 7.787 12.008 9.292 13.759 0.113 0.131 0.277 0.206 0.45 0.206s0.337-0.075 0.45-0.206c1.505-1.75 6.622-7.917 9.293-13.759 0.62-1.356 0.934-2.822 0.934-4.358-0.001-5.887-4.79-10.677-10.677-10.677zM15.999 17.722c-3.058 0-5.546-2.488-5.546-5.546s2.488-5.546 5.546-5.546 5.546 2.488 5.546 5.546c0 3.058-2.488 5.546-5.546 5.546z"></path>
</svg>
