<!-- Generated by IcoMoon.io -->
<svg version="1.1" xmlns="http://www.w3.org/2000/svg" width="32" height="32" viewBox="0 0 32 32">
<title>search</title>
<path d="M31.498 29.074l-6.95-6.95c1.805-2.322 2.881-5.24 2.881-8.409 0-7.574-6.14-13.714-13.714-13.714s-13.714 6.14-13.714 13.714c0 7.574 6.14 13.714 13.714 13.714 3.169 0 6.087-1.076 8.409-2.881l6.95 6.95c0.335 0.335 0.773 0.502 1.212 0.502s0.878-0.167 1.212-0.502c0.67-0.669 0.67-1.755 0-2.424zM3.429 13.714c0-5.672 4.614-10.286 10.286-10.286s10.286 4.614 10.286 10.286c0 5.672-4.614 10.286-10.286 10.286s-10.286-4.614-10.286-10.286z"></path>
</svg>
