<!-- Generated by IcoMoon.io -->
<svg version="1.1" xmlns="http://www.w3.org/2000/svg" width="32" height="32" viewBox="0 0 32 32">
<title>search</title>
<path d="M30.529 28.256l-6.516-6.516c1.692-2.177 2.701-4.913 2.701-7.884 0-7.101-5.756-12.857-12.857-12.857s-12.857 5.756-12.857 12.857c0 7.101 5.756 12.857 12.857 12.857 2.971 0 5.706-1.008 7.884-2.701l6.516 6.516c0.314 0.314 0.725 0.471 1.136 0.471s0.823-0.157 1.136-0.471c0.628-0.628 0.628-1.645 0-2.273zM4.214 13.857c0-5.317 4.326-9.643 9.643-9.643s9.643 4.326 9.643 9.643c0 5.317-4.326 9.643-9.643 9.643s-9.643-4.326-9.643-9.643z"></path>
</svg>
