<!-- Generated by IcoMoon.io -->
<svg version="1.1" xmlns="http://www.w3.org/2000/svg" width="33" height="32" viewBox="0 0 33 32">
<title>signal</title>
<path d="M16.43 7.087c-2.467 0-4.473 2.007-4.473 4.473 0 2.044 1.378 3.77 3.253 4.303v13.916c0 0.674 0.546 1.22 1.22 1.22s1.22-0.546 1.22-1.22v-13.916c1.875-0.532 3.253-2.259 3.253-4.303 0-2.467-2.007-4.473-4.473-4.473z"></path>
<path d="M10.786 5.038c-0.476-0.476-1.249-0.476-1.725 0-3.783 3.782-3.783 9.905 0 13.688 0.477 0.476 1.249 0.476 1.725 0s0.476-1.249 0-1.725c-2.829-2.829-2.829-7.408 0-10.237 0.476-0.476 0.476-1.249 0-1.725z"></path>
<path d="M23.8 5.038c-0.476-0.476-1.249-0.476-1.725 0s-0.476 1.249 0 1.725c2.822 2.822 2.822 7.415 0 10.237-0.476 0.476-0.476 1.249 0 1.725s1.249 0.476 1.725 0c3.774-3.774 3.774-9.914 0-13.688z"></path>
<path d="M7.105 3.083c0.476-0.476 0.476-1.249 0-1.725s-1.249-0.476-1.725 0c-5.803 5.803-5.803 15.246 0 21.050 0.476 0.476 1.249 0.477 1.725 0s0.476-1.249 0-1.725c-4.852-4.852-4.852-12.747 0-17.599z"></path>
<path d="M27.481 1.357c-0.476-0.476-1.249-0.476-1.725 0s-0.476 1.249 0 1.725c4.852 4.852 4.852 12.747 0 17.599-0.476 0.476-0.476 1.249 0 1.725s1.249 0.476 1.725 0c5.803-5.803 5.803-15.246 0-21.050z"></path>
</svg>
