<!-- Generated by IcoMoon.io -->
<svg version="1.1" xmlns="http://www.w3.org/2000/svg" width="32" height="32" viewBox="0 0 32 32">
<title>sort</title>
<path d="M19.71 18.032l-17.838-0.29c-0.966 0-1.747-0.779-1.747-1.742v0c0-0.962 0.782-1.742 1.747-1.742l17.838 0.29c0.966 0 1.747 0.779 1.747 1.742v0c0 0.962-0.782 1.742-1.747 1.742z"></path>
<path d="M30.286 8.979h-28.571c-0.947 0-1.714-0.779-1.714-1.742v0c0-0.962 0.767-1.742 1.714-1.742h28.571c0.947 0 1.714 0.779 1.714 1.742v0c0 0.962-0.767 1.742-1.714 1.742z"></path>
<path d="M8.736 26.504l-6.937-0.001c-0.925 0-1.674-0.779-1.674-1.742v0c0-0.962 0.749-1.742 1.674-1.742l6.937 0.001c0.925 0 1.674 0.779 1.674 1.742v0c0 0.962-0.75 1.742-1.674 1.742z"></path>
</svg>
