<!-- Generated by IcoMoon.io -->
<svg version="1.1" xmlns="http://www.w3.org/2000/svg" width="32" height="32" viewBox="0 0 32 32">
<title>star</title>
<path d="M18.378 3.061v0zM16.010 7.078l3.359 5.741 6.538 1.478-4.468 4.933 0.156 1.575 0.507 5.135-6.119-2.759-6.13 2.738 0.525-5.132 0.158-1.575-4.451-4.95 6.544-1.455 3.379-5.728zM16.019 0.743c-0.26 0-0.52 0.168-0.718 0.504l-4.96 8.408-9.609 2.136c-0.766 0.17-0.963 0.787-0.438 1.371l6.529 7.26-1.007 9.843c-0.061 0.598 0.226 0.961 0.685 0.961 0.146 0 0.31-0.037 0.485-0.116l8.99-4.015 8.975 4.046c0.176 0.080 0.341 0.117 0.487 0.117 0.456 0 0.744-0.362 0.685-0.959l-0.972-9.846 6.554-7.236c0.528-0.582 0.331-1.199-0.435-1.373l-9.601-2.17-4.93-8.426c-0.198-0.336-0.458-0.505-0.719-0.505v0z"></path>
</svg>
