<!-- Generated by IcoMoon.io -->
<svg version="1.1" xmlns="http://www.w3.org/2000/svg" width="32" height="32" viewBox="0 0 32 32">
<title>tel-circle</title>
<path d="M27.312 4.685c-6.249-6.247-16.38-6.246-22.627 0.003s-6.246 16.38 0.003 22.627 16.38 6.246 22.627-0.003c3-3.001 4.685-7.072 4.685-11.315s-1.687-8.312-4.688-11.312zM24.231 22.288c-0.001 0.001-0.001 0.001-0.002 0.002v-0.005l-0.811 0.805c-1.048 1.062-2.575 1.498-4.027 1.152-1.462-0.391-2.852-1.014-4.117-1.845-1.175-0.751-2.265-1.629-3.248-2.619-0.905-0.898-1.718-1.884-2.427-2.944-0.775-1.14-1.389-2.382-1.824-3.691-0.498-1.537-0.085-3.224 1.067-4.357l0.949-0.949c0.264-0.265 0.693-0.266 0.958-0.002 0.001 0.001 0.001 0.001 0.002 0.002l2.997 2.997c0.265 0.264 0.266 0.693 0.002 0.958-0.001 0.001-0.001 0.001-0.002 0.002l-1.76 1.76c-0.505 0.499-0.569 1.293-0.149 1.867 0.637 0.874 1.341 1.696 2.107 2.459 0.854 0.857 1.782 1.637 2.773 2.331 0.573 0.4 1.35 0.332 1.845-0.16l1.701-1.728c0.264-0.265 0.693-0.266 0.958-0.002 0.001 0.001 0.001 0.001 0.002 0.002l3.003 3.008c0.265 0.264 0.266 0.693 0.002 0.958z"></path>
</svg>
