<!-- Generated by IcoMoon.io -->
<svg version="1.1" xmlns="http://www.w3.org/2000/svg" width="32" height="32" viewBox="0 0 32 32">
<title>tel</title>
<path d="M24.672 19.856c-0.001-0.001-0.002-0.002-0.003-0.003-0.44-0.438-1.151-0.436-1.589 0.003l-2.822 2.866c-0.822 0.816-2.11 0.928-3.061 0.265-1.645-1.15-3.184-2.444-4.6-3.866-1.27-1.266-2.439-2.629-3.494-4.078-0.695-0.951-0.59-2.268 0.248-3.096l2.919-2.919c0.001-0.001 0.002-0.002 0.004-0.004 0.438-0.44 0.436-1.151-0.004-1.589l-4.971-4.971c-0.001-0.001-0.002-0.002-0.003-0.003-0.44-0.438-1.151-0.436-1.589 0.003l-1.574 1.574c-1.911 1.879-2.596 4.677-1.769 7.227 0.721 2.17 1.739 4.23 3.025 6.121 1.176 1.758 2.524 3.394 4.025 4.883 1.631 1.641 3.438 3.098 5.387 4.344 2.099 1.378 4.404 2.411 6.829 3.061 2.407 0.575 4.94-0.15 6.679-1.911l1.354-1.354-0.009 0.026c0.001-0.001 0.002-0.002 0.003-0.003 0.438-0.44 0.436-1.151-0.004-1.588l-4.98-4.989z"></path>
</svg>
