<!-- Generated by IcoMoon.io -->
<svg version="1.1" xmlns="http://www.w3.org/2000/svg" width="32" height="32" viewBox="0 0 32 32">
<title>truck-width</title>
<path d="M26.271 8.689h-20.541c-0.637 0-1.154 0.517-1.154 1.154v14.656c0 0.637 0.517 1.154 1.154 1.154h1.154v2.539c0 0.637 0.517 1.154 1.154 1.154v2.077c0 0.319 0.258 0.577 0.577 0.577h1.846c0.319 0 0.577-0.258 0.577-0.577v-2.077h9.809v2.077c0 0.319 0.258 0.577 0.577 0.577h1.846c0.319 0 0.577-0.258 0.577-0.577v-2.077h0.115c0.637 0 1.154-0.517 1.154-1.154v-2.539h1.154c0.637 0 1.154-0.517 1.154-1.154v-14.656c0-0.637-0.517-1.154-1.154-1.154zM8.961 15.844c0-0.319 0.258-0.577 0.577-0.577h12.925c0.319 0 0.577 0.258 0.577 0.577v5.885c0 0.319-0.258 0.577-0.577 0.577h-12.925c-0.319 0-0.577-0.258-0.577-0.577v-5.885zM10.692 27.384c-0.956 0-1.731-0.775-1.731-1.731s0.775-1.731 1.731-1.731 1.731 0.775 1.731 1.731c0 0.956-0.775 1.731-1.731 1.731zM19.693 25.653c0-0.956 0.775-1.731 1.731-1.731s1.731 0.775 1.731 1.731c0 0.956-0.775 1.731-1.731 1.731s-1.731-0.775-1.731-1.731z"></path>
<path d="M27.304 2.754c-0.084-0.17-0.209-0.316-0.361-0.425l-2.111-2.111c-0.363-0.363-0.985-0.106-0.985 0.408v1.485h-15.695v-1.533c0-0.514-0.622-0.771-0.985-0.408l-2.279 2.279c-0.451 0.451-0.451 1.181 0 1.632l2.279 2.279c0.364 0.364 0.985 0.106 0.985-0.408v-1.533h15.695v1.581c0 0.514 0.622 0.771 0.985 0.408l2.279-2.279c0.373-0.373 0.436-0.936 0.193-1.375z"></path>
</svg>
