<!-- Generated by IcoMoon.io -->
<svg version="1.1" xmlns="http://www.w3.org/2000/svg" width="32" height="32" viewBox="0 0 32 32">
<title>truck-length</title>
<path d="M17.023 8.801h-15.975c-0.551 0-0.998 0.447-0.998 0.998v18.472c0 0.552 0.447 0.998 0.998 0.998h2.142c0.431 1.442 1.769 2.496 3.349 2.496s2.919-1.054 3.349-2.496h7.821c0.172 0 0.312-0.14 0.312-0.312v-19.158c0-0.552-0.447-0.998-0.998-0.998zM6.539 29.769c-0.826 0-1.498-0.672-1.498-1.498s0.672-1.498 1.498-1.498 1.498 0.672 1.498 1.498-0.672 1.498-1.498 1.498z"></path>
<path d="M29.952 20.879v0l-1.145-0.382c-1.702-5.446-1.272-4.070-1.906-6.099-0.393-1.257-1.542-2.102-2.859-2.102h-3.711c-0.172 0-0.312 0.14-0.312 0.312v16.35c0 0.172 0.14 0.312 0.312 0.312h0.707c0.431 1.442 1.769 2.496 3.349 2.496s2.919-1.054 3.349-2.496h3.266c0.552 0 0.998-0.447 0.998-0.998v-4.552c0-1.291-0.823-2.433-2.048-2.841zM24.387 29.769c-0.826 0-1.498-0.672-1.498-1.498s0.672-1.498 1.498-1.498 1.498 0.672 1.498 1.498-0.672 1.498-1.498 1.498zM23.014 22.281c-0.552 0-0.998-0.447-0.998-0.998v-4.992c0-0.552 0.447-0.998 0.998-0.998h2.074c0.589 1.886 2.191 6.989 2.191 6.989h-4.265z"></path>
<path d="M31.856 2.957c-0.083-0.168-0.206-0.312-0.357-0.421l-2.087-2.087c-0.359-0.359-0.974-0.105-0.974 0.403v1.469h-24.876v-1.516c0-0.508-0.615-0.763-0.974-0.404l-2.253 2.254c-0.446 0.446-0.446 1.168 0 1.614l2.253 2.254c0.359 0.359 0.974 0.105 0.974-0.404v-1.516h24.876v1.563c0 0.508 0.615 0.763 0.974 0.404l2.254-2.254c0.368-0.368 0.431-0.926 0.191-1.36z"></path>
</svg>
