<!-- Generated by IcoMoon.io -->
<svg version="1.1" xmlns="http://www.w3.org/2000/svg" width="32" height="32" viewBox="0 0 32 32">
<title>truck-height</title>
<path d="M21.741 8.615h-20.585c-0.639 0-1.156 0.518-1.156 1.156v14.687c0 0.639 0.518 1.156 1.156 1.156h1.156v2.544c0 0.639 0.518 1.156 1.156 1.156v2.082c0 0.319 0.259 0.578 0.578 0.578h1.85c0.319 0 0.578-0.259 0.578-0.578v-2.082h9.83v2.082c0 0.319 0.259 0.578 0.578 0.578h1.85c0.319 0 0.578-0.259 0.578-0.578v-2.082h0.116c0.639 0 1.156-0.518 1.156-1.156v-2.544h1.156c0.639 0 1.156-0.518 1.156-1.156v-14.687c0-0.639-0.518-1.156-1.156-1.156zM4.395 15.785c0-0.319 0.259-0.578 0.578-0.578h12.952c0.319 0 0.578 0.259 0.578 0.578v5.898c0 0.319-0.259 0.578-0.578 0.578h-12.952c-0.319 0-0.578-0.259-0.578-0.578v-5.898zM6.129 27.349c-0.958 0-1.735-0.777-1.735-1.735s0.777-1.735 1.735-1.735 1.735 0.777 1.735 1.735c0 0.958-0.777 1.735-1.735 1.735zM15.15 25.615c0-0.958 0.777-1.735 1.735-1.735s1.735 0.777 1.735 1.735c0 0.958-0.777 1.735-1.735 1.735s-1.735-0.777-1.735-1.735z"></path>
<path d="M28.168 8.851c-0.17 0.084-0.316 0.209-0.426 0.362l-2.115 2.115c-0.364 0.364-0.106 0.987 0.409 0.987h1.488v16.075h-1.536c-0.515 0-0.773 0.623-0.409 0.987l2.284 2.284c0.452 0.452 1.184 0.452 1.635 0l2.284-2.284c0.364-0.364 0.106-0.987-0.409-0.987h-1.536v-16.075h1.584c0.515 0 0.773-0.623 0.409-0.987l-2.284-2.284c-0.373-0.373-0.938-0.437-1.378-0.193z"></path>
</svg>
