<!-- Generated by IcoMoon.io -->
<svg version="1.1" xmlns="http://www.w3.org/2000/svg" width="32" height="32" viewBox="0 0 32 32">
<title>weight</title>
<path d="M29.735 27.593l-3.075-16.917c-0.176-0.972-1.021-1.677-2.008-1.677h-5.154c0.55-0.732 0.877-1.641 0.877-2.625 0-2.413-1.962-4.375-4.375-4.375s-4.375 1.962-4.375 4.375c0 0.984 0.327 1.893 0.877 2.625h-5.154c-0.987 0-1.832 0.705-2.009 1.677l-3.075 16.917c-0.108 0.597 0.051 1.207 0.441 1.673 0.389 0.467 0.961 0.734 1.568 0.734h23.455c0.608 0 1.18-0.267 1.568-0.734 0.389-0.465 0.55-1.076 0.44-1.673zM16 4.333c1.126 0 2.042 0.916 2.042 2.042s-0.916 2.042-2.042 2.042-2.042-0.916-2.042-2.042 0.916-2.042 2.042-2.042z"></path>
</svg>
