<?xml version="1.0" encoding="UTF-8" standalone="no"?>
<svg
   xmlns:dc="http://purl.org/dc/elements/1.1/"
   xmlns:cc="http://creativecommons.org/ns#"
   xmlns:rdf="http://www.w3.org/1999/02/22-rdf-syntax-ns#"
   xmlns:svg="http://www.w3.org/2000/svg"
   xmlns="http://www.w3.org/2000/svg"
   xml:space="preserve"
   enable-background="new 0 0 960 960"
   viewBox="0 0 360 60"
   height="60"
   width="360"
   y="0px"
   x="0px"
   id="Слой_1"
   version="1.1"><metadata
   id="metadata23"><rdf:RDF><cc:Work
       rdf:about=""><dc:format>image/svg+xml</dc:format><dc:type
         rdf:resource="http://purl.org/dc/dcmitype/StillImage" /><dc:title></dc:title></cc:Work></rdf:RDF></metadata><defs
   id="defs21" />
<path
   style="fill:#ff8671;stroke-width:0.48989135;fill-opacity:1"
   id="path2"
   d="M 0.44235611,58.66719 C 0.14745233,58.33385 0,57.91719 0,57.41719 l 0.14745233,-0.75 17.69424467,-53.75 c 0.490738,-1.38802 1.37545,-2.08334 2.654136,-2.08334 h 8.109862 c 1.277303,0 2.162476,0.69532 2.654136,2.08334 l 17.694245,53.75 0.147452,0.75 c 0,0.5 -0.159893,0.91666 -0.479219,1.25 -0.320248,0.33333 -0.675975,0.5 -1.069027,0.5 h -6.561616 c -1.032164,0 -1.745463,-0.52761 -2.138054,-1.58334 L 35.462214,47.50052 h -21.8229 L 10.247916,57.58385 C 9.8539433,58.63958 9.1420259,59.16719 8.1098623,59.16719 H 1.5482464 c -0.4423561,0 -0.81098651,-0.16667 -1.10589029,-0.5 z M 16.219724,37.83385 h 16.66208 l -8.33104,-25.66666 z" />
<path
   style="fill:#ff8671;stroke-width:0.48989135;fill-opacity:1"
   id="path4"
   d="m 67.753288,58.58385 c -0.344667,-0.38802 -0.51608,-0.86041 -0.51608,-1.41666 V 11.25052 H 53.597894 c -0.491661,0 -0.910056,-0.19427 -1.253343,-0.58333 -0.344209,-0.38802 -0.516082,-0.88802 -0.516082,-1.5 v -6.25 c 0,-0.61042 0.158972,-1.11042 0.479219,-1.5 0.318865,-0.38802 0.74878,-0.58334 1.290206,-0.58334 h 37.67399 c 0.540506,0 0.982863,0.19532 1.327069,0.58334 0.343295,0.38958 0.516088,0.88958 0.516088,1.5 v 6.25 c 0,0.61198 -0.172793,1.11198 -0.516088,1.5 -0.344666,0.38958 -0.787023,0.58333 -1.327069,0.58333 H 77.7063 v 45.91667 c 0,0.55573 -0.159894,1.02864 -0.479222,1.41666 -0.320239,0.38959 -0.749696,0.58334 -1.290202,0.58334 h -6.930243 c -0.492121,0 -0.910519,-0.19427 -1.253345,-0.58334 z" />
<path
   style="fill:#ff8671;stroke-width:0.48989135;fill-opacity:1"
   id="path6"
   d="m 101.03966,58.58385 c -0.32024,-0.38802 -0.47922,-0.88802 -0.47922,-1.5 V 2.91719 c 0,-0.61042 0.15898,-1.11042 0.47922,-1.5 0.31887,-0.38802 0.74878,-0.58334 1.29021,-0.58334 h 6.85652 c 0.49074,0 0.90868,0.19532 1.25334,0.58334 0.34329,0.38958 0.51608,0.88958 0.51608,1.5 v 38.08333 l 24.10841,-38.75 c 0.44236,-0.94427 1.15427,-1.41667 2.13806,-1.41667 h 6.19298 c 0.54005,0 0.96996,0.19532 1.2902,0.58334 0.31887,0.38958 0.47923,0.88958 0.47923,1.5 v 54.25 c 0,0.55573 -0.1599,1.02864 -0.47923,1.41666 -0.32024,0.38959 -0.75015,0.58334 -1.2902,0.58334 h -6.78279 c -0.54143,0 -0.98379,-0.19427 -1.32707,-0.58334 -0.34467,-0.38802 -0.51608,-0.86041 -0.51608,-1.41666 v -37.25 l -24.03469,37.83333 c -0.49166,0.94531 -1.20496,1.41667 -2.13805,1.41667 h -6.26671 c -0.54143,0 -0.97134,-0.19427 -1.29021,-0.58334 z" />
<path
   style="fill:#ff8671;stroke-width:0.48989135;fill-opacity:1"
   id="path8"
   d="m 160.83008,54.125 c -3.71164,-3.91667 -5.6898,-9.48542 -5.93494,-16.70833 -0.0493,-1.5 -0.0737,-3.94427 -0.0737,-7.33334 0,-3.44427 0.0244,-5.94427 0.0737,-7.5 0.24514,-7.11041 2.2362,-12.65208 5.97181,-16.625 C 164.60163,1.98698 169.83618,0 176.57059,0 c 4.3738,0 8.18359,0.8474 11.42753,2.54167 3.24394,1.69531 5.76215,4.01458 7.55692,6.95833 1.79384,2.94531 2.73938,6.25 2.83845,9.91667 v 0.16666 c 0,0.44532 -0.16036,0.82032 -0.47922,1.125 -0.32025,0.30573 -0.67598,0.45834 -1.06903,0.45834 h -7.15142 c -0.58981,0 -1.03217,-0.15209 -1.32707,-0.45834 -0.2949,-0.30468 -0.54143,-0.84635 -0.73726,-1.625 -0.73726,-3.44375 -2.01595,-5.875 -3.83376,-7.29166 -1.81873,-1.41667 -4.22772,-2.125 -7.22514,-2.125 -7.02932,0 -10.69028,4.44531 -10.98518,13.33333 -0.0493,1.5 -0.0737,3.80625 -0.0737,6.91667 0,3.11198 0.024,5.47291 0.0737,7.08333 0.2949,8.88906 3.95586,13.33333 10.98518,13.33333 2.94904,0 5.34513,-0.70833 7.18829,-2.125 1.84314,-1.41666 3.13335,-3.84635 3.87061,-7.29166 0.19583,-0.77761 0.44236,-1.31875 0.73726,-1.625 0.2949,-0.30469 0.73726,-0.45834 1.32707,-0.45834 h 7.15142 c 0.44236,0 0.82251,0.16667 1.14276,0.5 0.31886,0.33334 0.45387,0.75 0.40549,1.25 -0.0991,3.66667 -1.04507,6.97292 -2.83845,9.91667 -1.79477,2.94531 -4.31298,5.26406 -7.55692,6.95833 C 184.75418,59.15365 180.94439,60 176.57059,60 c -6.7828,5.2e-4 -12.02979,-1.95833 -15.74051,-5.875 z" />
<path
   style="fill:#ff8671;stroke-width:0.48989135;fill-opacity:1"
   id="path10"
   d="m 219.03724,58.58385 c -0.34468,-0.38802 -0.51655,-0.86041 -0.51655,-1.41666 V 11.25052 h -13.63931 c -0.49166,0 -0.91006,-0.19427 -1.25334,-0.58333 -0.34421,-0.38802 -0.51608,-0.88802 -0.51608,-1.5 v -6.25 c 0,-0.61042 0.15896,-1.11042 0.47921,-1.5 0.31887,-0.38802 0.74878,-0.58334 1.29021,-0.58334 h 37.67399 c 0.54051,0 0.98287,0.19532 1.32753,0.58334 0.34283,0.38958 0.51562,0.88958 0.51562,1.5 v 6.25 c 0,0.61198 -0.17279,1.11198 -0.51562,1.5 -0.34466,0.38958 -0.78702,0.58333 -1.32753,0.58333 h -13.56512 v 45.91667 c 0,0.55573 -0.16036,1.02864 -0.47968,1.41666 -0.31979,0.38959 -0.74971,0.58334 -1.28975,0.58334 h -6.93071 c -0.49166,0 -0.91005,-0.19427 -1.25287,-0.58334 z" />
<path
   style="fill:#4784b3;stroke-width:0.48989135;fill-opacity:1"
   id="path12"
   d="m 251.03294,58.58385 c -0.34466,-0.38802 -0.51608,-0.86041 -0.51608,-1.41666 v -8.41667 c 0,-0.55469 0.17142,-1.0276 0.51608,-1.41667 0.34283,-0.38802 0.76123,-0.58333 1.25335,-0.58333 h 7.44633 c 0.49073,0 0.90867,0.19531 1.25333,0.58333 0.34329,0.38959 0.51609,0.86198 0.51609,1.41667 v 8.41667 c 0,0.55573 -0.16035,1.02864 -0.47922,1.41666 -0.32025,0.38959 -0.7497,0.58334 -1.2902,0.58334 h -7.44633 c -0.49166,0 -0.91052,-0.19427 -1.25335,-0.58334 z" />
<path
   style="fill:#4784b3;stroke-width:0.48989135;fill-opacity:1"
   id="path14"
   d="m 271.82414,58.58385 c -0.34467,-0.38802 -0.51608,-0.86041 -0.51608,-1.41666 v -54.25 c 0,-0.61042 0.15897,-1.11042 0.47922,-1.5 0.31886,-0.38802 0.74878,-0.58334 1.2902,-0.58334 h 19.75857 c 5.94647,0 10.61701,1.58334 14.00795,4.75 3.39094,3.16667 5.0871,7.77865 5.0871,13.83334 0,6 -1.69616,10.54166 -5.0871,13.625 -3.39094,3.08333 -8.06148,4.625 -14.00795,4.625 h -10.83772 v 19.5 c 0,0.61198 -0.17279,1.09739 -0.51608,1.45833 -0.34421,0.36198 -0.78702,0.54167 -1.32707,0.54167 h -7.0777 c -0.49166,0 -0.91005,-0.19427 -1.25334,-0.58334 z m 20.64329,-30.25052 c 2.84997,0 5.02488,-0.76302 6.52475,-2.29166 1.49894,-1.52761 2.24864,-3.76302 2.24864,-6.70834 0,-2.88802 -0.72528,-5.13802 -2.17491,-6.75 -1.4501,-1.61093 -3.6499,-2.41666 -6.59848,-2.41666 h -10.61655 v 18.16666 z" />
<path
   style="fill:#4784b3;stroke-width:0.48989135;fill-opacity:1"
   id="path16"
   d="M 359.55764,1.33385 C 359.85255,1.66719 360,2.05677 360,2.50052 c 0,0.55573 -0.0995,1.02865 -0.29537,1.41667 l -14.81893,38.25 c -1.72058,4.44531 -3.29324,7.83333 -4.718,10.16666 -1.4266,2.33334 -3.1587,4.05625 -5.19769,5.16667 -2.04036,1.11198 -4.70694,1.66667 -7.99926,1.66667 h -3.46513 c -0.49212,0 -0.91006,-0.19427 -1.2538,-0.58334 -0.34421,-0.38802 -0.51562,-0.86041 -0.51562,-1.41666 v -6.33334 c 0,-0.55468 0.17141,-1.0276 0.51562,-1.41666 0.34374,-0.38802 0.76122,-0.58334 1.2538,-0.58334 h 2.72786 c 1.67036,0 3.08359,-0.5 4.23879,-1.5 1.15473,-1 2.27352,-2.66666 3.355,-5 L 315.17458,3.50052 c -0.0991,-0.44427 -0.14745,-0.72135 -0.14745,-0.83333 0,-0.5 0.15943,-0.92969 0.47922,-1.29167 0.31886,-0.36042 0.70086,-0.54167 1.14229,-0.54167 h 7.3726 c 0.83541,0 1.47498,0.52865 1.91688,1.58334 L 338.91389,29.75052 349.45718,2.41719 C 349.8,1.3625 350.48888,0.83385 351.52104,0.83385 h 6.93025 c 0.44236,0 0.81098,0.16615 1.10635,0.5 z" />
</svg>