<?xml version="1.0" encoding="utf-8"?><svg xmlns="http://www.w3.org/2000/svg" xmlns:xlink="http://www.w3.org/1999/xlink"><symbol viewBox="0 0 32 32" id="add" xmlns="http://www.w3.org/2000/svg"><path d="M16 0C7.163 0 0 7.163 0 16s7.163 16 16 16 16-7.163 16-16S24.837 0 16 0zm7.314 17.714h-5.6v5.6a1.714 1.714 0 01-3.428 0v-5.6h-5.6a1.714 1.714 0 010-3.428h5.6v-5.6a1.714 1.714 0 013.428 0v5.6h5.6a1.714 1.714 0 010 3.428z"/></symbol><symbol viewBox="0 0 32 32" id="angle-down" xmlns="http://www.w3.org/2000/svg"><path d="M26.35 10.079a2.108 2.108 0 00-2.982 0L16 17.447l-7.368-7.368a2.108 2.108 0 10-2.982 2.982l8.859 8.859a2.106 2.106 0 002.982 0l8.859-8.859a2.108 2.108 0 000-2.982z"/></symbol><symbol viewBox="0 0 32 32" id="angle-left" xmlns="http://www.w3.org/2000/svg"><path d="M21.504 25.711a1.978 1.978 0 000-2.798L14.591 16l6.913-6.913a1.978 1.978 0 10-2.798-2.798l-8.312 8.312a1.978 1.978 0 00-.001 2.798l8.312 8.312a1.978 1.978 0 002.798 0z"/></symbol><symbol viewBox="0 0 32 32" id="angle-right" xmlns="http://www.w3.org/2000/svg"><path d="M10.445 6.289a1.978 1.978 0 000 2.798L17.358 16l-6.913 6.913a1.978 1.978 0 102.798 2.798l8.312-8.312a1.978 1.978 0 00.001-2.798l-8.312-8.312a1.978 1.978 0 00-2.798 0z"/></symbol><symbol viewBox="0 0 32 32" id="angle-up" xmlns="http://www.w3.org/2000/svg"><path d="M26.35 21.921a2.108 2.108 0 01-2.982 0L16 14.553l-7.368 7.368a2.108 2.108 0 11-2.982-2.982l8.859-8.859a2.106 2.106 0 012.982 0l8.859 8.859a2.108 2.108 0 010 2.982z"/></symbol><symbol viewBox="0 0 28 32" id="arrow-down" xmlns="http://www.w3.org/2000/svg"><path d="M13.999 30a1.89 1.89 0 001.338-.552l6.797-6.797a1.523 1.523 0 10-2.155-2.154l-4.456 4.455V3.5c0-.829-.682-1.5-1.524-1.5s-1.524.671-1.524 1.5v21.45L8.02 20.496a1.521 1.521 0 00-2.154 0 1.517 1.517 0 000 2.154l6.798 6.799a1.884 1.884 0 001.335.551z"/></symbol><symbol viewBox="0 0 28 32" id="arrow-left" xmlns="http://www.w3.org/2000/svg"><path d="M0 16.001c0-.484.184-.969.552-1.338l6.797-6.797a1.523 1.523 0 112.154 2.155l-4.455 4.456H26.5c.829 0 1.5.682 1.5 1.524s-.671 1.524-1.5 1.524H5.05l4.454 4.455c.596.595.596 1.56 0 2.154a1.517 1.517 0 01-2.154 0L.551 17.336A1.884 1.884 0 010 16.001z"/></symbol><symbol viewBox="0 0 28 32" id="arrow-right" xmlns="http://www.w3.org/2000/svg"><path d="M28 16.001a1.89 1.89 0 00-.552-1.338l-6.797-6.797a1.523 1.523 0 10-2.154 2.155l4.455 4.456H1.5c-.829 0-1.5.682-1.5 1.524s.671 1.524 1.5 1.524h21.45l-4.454 4.455a1.521 1.521 0 000 2.154 1.517 1.517 0 002.154 0l6.799-6.798A1.884 1.884 0 0028 16.001z"/></symbol><symbol viewBox="0 0 28 32" id="arrow-up" xmlns="http://www.w3.org/2000/svg"><path d="M14.001 2a1.89 1.89 0 00-1.338.552L5.866 9.349a1.523 1.523 0 102.155 2.154l4.456-4.455V28.5c0 .829.682 1.5 1.524 1.5s1.524-.671 1.524-1.5V7.05l4.455 4.454c.595.596 1.56.596 2.154 0a1.517 1.517 0 000-2.154l-6.798-6.799A1.884 1.884 0 0014.001 2z"/></symbol><symbol viewBox="0 0 28 32" id="burger" xmlns="http://www.w3.org/2000/svg"><path d="M26.917 17.524H1.52a1.524 1.524 0 110-3.048h25.397a1.524 1.524 0 110 3.048zm0-10.667H1.52a1.524 1.524 0 110-3.048h25.397a1.524 1.524 0 110 3.048zm0 21.333H1.52a1.524 1.524 0 110-3.048h25.397a1.524 1.524 0 110 3.048z"/></symbol><symbol viewBox="0 0 32 32" id="chevron-down" xmlns="http://www.w3.org/2000/svg"><path d="M0 8.754c0 .386.147.772.442 1.066l14.493 14.493a1.507 1.507 0 002.132 0L31.56 9.82a1.507 1.507 0 10-2.132-2.132L16.001 21.115 2.574 7.688A1.507 1.507 0 000 8.754z"/></symbol><symbol viewBox="0 0 32 32" id="chevron-left" xmlns="http://www.w3.org/2000/svg"><path d="M23.246 32a1.5 1.5 0 01-1.066-.442L7.687 17.065a1.507 1.507 0 010-2.132L22.18.44a1.507 1.507 0 112.132 2.132L10.885 15.999l13.427 13.427A1.507 1.507 0 0123.246 32z"/></symbol><symbol viewBox="0 0 32 32" id="chevron-right" xmlns="http://www.w3.org/2000/svg"><path d="M8.754 32a1.5 1.5 0 001.066-.442l14.493-14.493a1.507 1.507 0 000-2.132L9.82.44a1.507 1.507 0 10-2.132 2.132l13.427 13.427L7.688 29.426A1.507 1.507 0 008.754 32z"/></symbol><symbol viewBox="0 0 32 32" id="chevron-up" xmlns="http://www.w3.org/2000/svg"><path d="M0 23.246a1.5 1.5 0 01.442-1.066L14.935 7.687a1.507 1.507 0 012.132 0L31.56 22.18a1.507 1.507 0 11-2.132 2.132L16.001 10.885 2.574 24.312A1.507 1.507 0 010 23.246z"/></symbol><symbol viewBox="0 0 32 32" id="cursor" xmlns="http://www.w3.org/2000/svg"><path d="M29.447 2.106a1.002 1.002 0 00-.896 0l-25.999 13a1 1 0 00.268 1.878l10.319 1.877 1.877 10.319a1 1 0 001.878.268l13-25.999a1 1 0 00-.446-1.342z"/></symbol><symbol viewBox="0 0 28 32" id="filter" xmlns="http://www.w3.org/2000/svg"><path d="M26.917 3.86H14.519a5.333 5.333 0 00-10.252 0H1.52a1.524 1.524 0 100 3.048h2.776a5.335 5.335 0 0010.194 0h12.427a1.524 1.524 0 100-3.048zM9.393 7.619c-1.26 0-2.286-1.025-2.286-2.286s1.025-2.286 2.286-2.286c1.26 0 2.286 1.025 2.286 2.286s-1.025 2.286-2.286 2.286zm17.524 6.908h-.716a5.333 5.333 0 00-10.252 0H1.519a1.524 1.524 0 100 3.048h14.459a5.335 5.335 0 0010.194 0h.744a1.524 1.524 0 100-3.048zm-5.841 3.759c-1.26 0-2.286-1.025-2.286-2.286s1.025-2.286 2.286-2.286c1.26 0 2.286 1.025 2.286 2.286s-1.025 2.286-2.286 2.286zm5.841 6.908h-14.43a5.333 5.333 0 00-10.252 0h-.716a1.524 1.524 0 100 3.048h.744a5.335 5.335 0 0010.194 0h14.459a1.524 1.524 0 100-3.048zM7.362 28.952c-1.26 0-2.286-1.025-2.286-2.286s1.025-2.286 2.286-2.286c1.26 0 2.286 1.025 2.286 2.286s-1.025 2.286-2.286 2.286z"/></symbol><symbol viewBox="0 0 32 32" id="filter-alt" xmlns="http://www.w3.org/2000/svg"><path d="M29.161 5.899H2.839c-.962 0-1.743-.78-1.743-1.743v-.009c0-.962.781-1.743 1.743-1.743h26.322c.962 0 1.743.781 1.743 1.743v.009c0 .963-.781 1.743-1.743 1.743zm.587 3.031H2.252c-1.267 0-1.49.644-.499 1.431l8.832 7.008v11.399c0 .666.502.998 1.116.739l9.224-3.906a.872.872 0 00.49-.739v-7.493l8.832-7.008c.992-.786.767-1.431-.499-1.431z"/></symbol><symbol viewBox="0 0 32 32" id="geo" xmlns="http://www.w3.org/2000/svg"><path d="M15.999 1.5c-5.886 0-10.676 4.789-10.676 10.677 0 1.536.314 3.002.934 4.358 2.669 5.841 7.787 12.008 9.292 13.759a.594.594 0 00.9 0c1.505-1.75 6.622-7.917 9.293-13.759.62-1.356.934-2.822.934-4.358C26.675 6.29 21.886 1.5 15.999 1.5zm0 16.222c-3.058 0-5.546-2.488-5.546-5.546s2.488-5.546 5.546-5.546 5.546 2.488 5.546 5.546a5.552 5.552 0 01-5.546 5.546z"/></symbol><symbol viewBox="0 0 32 32" id="plus" xmlns="http://www.w3.org/2000/svg"><path d="M27.342 13.342h-8.683V4.658a2.658 2.658 0 10-5.316 0v8.684H4.659a2.658 2.658 0 100 5.316h8.684v8.683a2.658 2.658 0 105.316 0v-8.683h8.683a2.658 2.658 0 100-5.316z"/></symbol><symbol viewBox="0 0 32 32" id="search" xmlns="http://www.w3.org/2000/svg"><path d="M30.529 28.256l-6.516-6.516a12.805 12.805 0 002.701-7.884c0-7.101-5.756-12.857-12.857-12.857S1 6.755 1 13.856c0 7.101 5.756 12.857 12.857 12.857a12.8 12.8 0 007.884-2.701l6.516 6.516a1.602 1.602 0 002.272 0 1.607 1.607 0 000-2.273zM4.214 13.857c0-5.317 4.326-9.643 9.643-9.643S23.5 8.54 23.5 13.857c0 5.317-4.326 9.643-9.643 9.643s-9.643-4.326-9.643-9.643z"/></symbol><symbol viewBox="0 0 33 32" id="signal" xmlns="http://www.w3.org/2000/svg"><path d="M16.43 7.087a4.478 4.478 0 00-4.473 4.473 4.48 4.48 0 003.253 4.303v13.916a1.22 1.22 0 102.44 0V15.863a4.48 4.48 0 003.253-4.303 4.478 4.478 0 00-4.473-4.473zm-5.644-2.049a1.22 1.22 0 00-1.725 0 9.673 9.673 0 000 13.688 1.22 1.22 0 001.725-1.725 7.235 7.235 0 010-10.237 1.22 1.22 0 000-1.725zm13.014 0a1.22 1.22 0 00-1.725 1.725c2.822 2.822 2.822 7.415 0 10.237a1.22 1.22 0 001.725 1.725c3.774-3.774 3.774-9.914 0-13.688z"/><path d="M7.105 3.083A1.22 1.22 0 005.38 1.358c-5.803 5.803-5.803 15.246 0 21.05a1.22 1.22 0 101.725-1.725c-4.852-4.852-4.852-12.747 0-17.599zm20.376-1.726a1.22 1.22 0 00-1.725 1.725c4.852 4.852 4.852 12.747 0 17.599a1.22 1.22 0 001.725 1.725c5.803-5.803 5.803-15.246 0-21.05z"/></symbol><symbol viewBox="0 0 32 32" id="sort" xmlns="http://www.w3.org/2000/svg"><path d="M19.71 18.032l-17.838-.29A1.743 1.743 0 01.125 16c0-.962.782-1.742 1.747-1.742l17.838.29c.966 0 1.747.779 1.747 1.742 0 .962-.782 1.742-1.747 1.742zm10.576-9.053H1.715C.768 8.979.001 8.2.001 7.237c0-.962.767-1.742 1.714-1.742h28.571c.947 0 1.714.779 1.714 1.742 0 .962-.767 1.742-1.714 1.742zM8.736 26.504l-6.937-.001c-.925 0-1.674-.779-1.674-1.742 0-.962.749-1.742 1.674-1.742l6.937.001c.925 0 1.674.779 1.674 1.742 0 .962-.75 1.742-1.674 1.742z"/></symbol><symbol viewBox="0 0 32 32" id="star" xmlns="http://www.w3.org/2000/svg"><path d="M18.378 3.061zM16.01 7.078l3.359 5.741 6.538 1.478-4.468 4.933.156 1.575.507 5.135-6.119-2.759-6.13 2.738.525-5.132.158-1.575-4.451-4.95 6.544-1.455 3.379-5.728zm.009-6.335c-.26 0-.52.168-.718.504l-4.96 8.408-9.609 2.136c-.766.17-.963.787-.438 1.371l6.529 7.26-1.007 9.843c-.061.598.226.961.685.961.146 0 .31-.037.485-.116l8.99-4.015 8.975 4.046c.176.08.341.117.487.117.456 0 .744-.362.685-.959l-.972-9.846 6.554-7.236c.528-.582.331-1.199-.435-1.373l-9.601-2.17-4.93-8.426c-.198-.336-.458-.505-.719-.505z"/></symbol><symbol viewBox="0 0 32 32" id="tel" xmlns="http://www.w3.org/2000/svg"><path d="M24.672 19.856l-.003-.003a1.124 1.124 0 00-1.589.003l-2.822 2.866a2.398 2.398 0 01-3.061.265 33.915 33.915 0 01-4.6-3.866 34.1 34.1 0 01-3.494-4.078 2.38 2.38 0 01.248-3.096l2.919-2.919.004-.004a1.123 1.123 0 00-.004-1.589L7.299 2.464l-.003-.003a1.124 1.124 0 00-1.589.003L4.133 4.038a7.074 7.074 0 00-1.769 7.227 24.778 24.778 0 003.025 6.121 31.718 31.718 0 004.025 4.883 31.575 31.575 0 005.387 4.344 23.553 23.553 0 006.829 3.061 7.077 7.077 0 006.679-1.911l1.354-1.354-.009.026.003-.003a1.122 1.122 0 00-.004-1.588l-4.98-4.989z"/></symbol><symbol viewBox="0 0 32 32" id="tel-circle" xmlns="http://www.w3.org/2000/svg"><path d="M27.312 4.685c-6.249-6.247-16.38-6.246-22.627.003s-6.246 16.38.003 22.627 16.38 6.246 22.627-.003a15.996 15.996 0 00-.003-22.627zm-3.081 17.603l-.002.002v-.005l-.811.805a4.267 4.267 0 01-4.027 1.152 14.164 14.164 0 01-4.117-1.845 18.986 18.986 0 01-3.248-2.619 19.13 19.13 0 01-2.427-2.944 14.952 14.952 0 01-1.824-3.691 4.267 4.267 0 011.067-4.357l.949-.949a.677.677 0 01.958-.002l.002.002 2.997 2.997a.677.677 0 01.002.958l-.002.002-1.76 1.76a1.434 1.434 0 00-.149 1.867 20.571 20.571 0 002.107 2.459 20.584 20.584 0 002.773 2.331c.573.4 1.35.332 1.845-.16l1.701-1.728a.677.677 0 01.958-.002l.002.002 3.003 3.008a.677.677 0 01.002.958z"/></symbol><symbol viewBox="0 0 32 32" id="truck-height" xmlns="http://www.w3.org/2000/svg"><path d="M21.741 8.615H1.156C.517 8.615 0 9.133 0 9.771v14.687c0 .639.518 1.156 1.156 1.156h1.156v2.544c0 .639.518 1.156 1.156 1.156v2.082c0 .319.259.578.578.578h1.85a.578.578 0 00.578-.578v-2.082h9.83v2.082c0 .319.259.578.578.578h1.85a.578.578 0 00.578-.578v-2.082h.116c.639 0 1.156-.518 1.156-1.156v-2.544h1.156c.639 0 1.156-.518 1.156-1.156V9.771c0-.639-.518-1.156-1.156-1.156zm-17.346 7.17c0-.319.259-.578.578-.578h12.952c.319 0 .578.259.578.578v5.898a.578.578 0 01-.578.578H4.973a.578.578 0 01-.578-.578v-5.898zm1.734 11.564a1.735 1.735 0 110-3.47 1.735 1.735 0 010 3.47zm9.021-1.734a1.735 1.735 0 113.47 0 1.735 1.735 0 01-3.47 0zM28.168 8.851c-.17.084-.316.209-.426.362l-2.115 2.115a.578.578 0 00.409.987h1.488V28.39h-1.536a.578.578 0 00-.409.987l2.284 2.284a1.155 1.155 0 001.635 0l2.284-2.284a.578.578 0 00-.409-.987h-1.536V12.315h1.584a.578.578 0 00.409-.987l-2.284-2.284a1.157 1.157 0 00-1.378-.193z"/></symbol><symbol viewBox="0 0 32 32" id="truck-length" xmlns="http://www.w3.org/2000/svg"><path d="M17.023 8.801H1.048a.998.998 0 00-.998.998v18.472c0 .552.447.998.998.998H3.19a3.5 3.5 0 003.349 2.496 3.5 3.5 0 003.349-2.496h7.821c.172 0 .312-.14.312-.312V9.799a.998.998 0 00-.998-.998zM6.539 29.769c-.826 0-1.498-.672-1.498-1.498s.672-1.498 1.498-1.498 1.498.672 1.498 1.498-.672 1.498-1.498 1.498zm23.413-8.89l-1.145-.382-1.906-6.099a2.983 2.983 0 00-2.859-2.102h-3.711a.312.312 0 00-.312.312v16.35c0 .172.14.312.312.312h.707a3.5 3.5 0 003.349 2.496 3.5 3.5 0 003.349-2.496h3.266a.998.998 0 00.998-.998V23.72a2.99 2.99 0 00-2.048-2.841zm-5.565 8.89c-.826 0-1.498-.672-1.498-1.498s.672-1.498 1.498-1.498 1.498.672 1.498 1.498-.672 1.498-1.498 1.498zm-1.373-7.488a.998.998 0 01-.998-.998v-4.992c0-.552.447-.998.998-.998h2.074c.589 1.886 2.191 6.989 2.191 6.989h-4.265zm8.842-19.324a1.145 1.145 0 00-.357-.421L29.412.449a.57.57 0 00-.974.403v1.469H3.562V.805a.57.57 0 00-.974-.404L.335 2.655a1.14 1.14 0 000 1.614l2.253 2.254a.57.57 0 00.974-.404V4.603h24.876v1.563a.57.57 0 00.974.404l2.254-2.254c.368-.368.431-.926.191-1.36z"/></symbol><symbol viewBox="0 0 32 32" id="truck-width" xmlns="http://www.w3.org/2000/svg"><path d="M26.271 8.689H5.73c-.637 0-1.154.517-1.154 1.154v14.656c0 .637.517 1.154 1.154 1.154h1.154v2.539c0 .637.517 1.154 1.154 1.154v2.077c0 .319.258.577.577.577h1.846a.577.577 0 00.577-.577v-2.077h9.809v2.077c0 .319.258.577.577.577h1.846a.577.577 0 00.577-.577v-2.077h.115c.637 0 1.154-.517 1.154-1.154v-2.539h1.154c.637 0 1.154-.517 1.154-1.154V9.843c0-.637-.517-1.154-1.154-1.154zm-17.31 7.155c0-.319.258-.577.577-.577h12.925c.319 0 .577.258.577.577v5.885a.577.577 0 01-.577.577H9.538a.577.577 0 01-.577-.577v-5.885zm1.731 11.54a1.731 1.731 0 110-3.462 1.731 1.731 0 010 3.462zm9.001-1.731a1.731 1.731 0 113.462 0 1.731 1.731 0 01-3.462 0zm7.611-22.899a1.152 1.152 0 00-.361-.425L24.832.218a.577.577 0 00-.985.408v1.485H8.152V.578A.577.577 0 007.167.17L4.888 2.449a1.153 1.153 0 000 1.632L7.167 6.36a.577.577 0 00.985-.408V4.419h15.695V6c0 .514.622.771.985.408l2.279-2.279c.373-.373.436-.936.193-1.375z"/></symbol><symbol viewBox="0 0 32 32" id="weight" xmlns="http://www.w3.org/2000/svg"><path d="M29.735 27.593L26.66 10.676a2.04 2.04 0 00-2.008-1.677h-5.154c.55-.732.877-1.641.877-2.625 0-2.413-1.962-4.375-4.375-4.375s-4.375 1.962-4.375 4.375c0 .984.327 1.893.877 2.625H7.348c-.987 0-1.832.705-2.009 1.677L2.264 27.593a2.034 2.034 0 00.441 1.673c.389.467.961.734 1.568.734h23.455c.608 0 1.18-.267 1.568-.734a2.03 2.03 0 00.44-1.673zM16 4.333c1.126 0 2.042.916 2.042 2.042S17.126 8.417 16 8.417s-2.042-.916-2.042-2.042.916-2.042 2.042-2.042z"/></symbol></svg>