<?xml version="1.0" encoding="UTF-8" standalone="no"?>
<svg
   xmlns:dc="http://purl.org/dc/elements/1.1/"
   xmlns:cc="http://creativecommons.org/ns#"
   xmlns:rdf="http://www.w3.org/1999/02/22-rdf-syntax-ns#"
   xmlns:svg="http://www.w3.org/2000/svg"
   xmlns="http://www.w3.org/2000/svg"
   xml:space="preserve"
   enable-background="new 0 0 2500 2500"
   viewBox="0 0 1000 632.70697"
   height="632.70697"
   width="1000"
   y="0px"
   x="0px"
   id="Слой_1"
   version="1.1"><metadata
   id="metadata19"><rdf:RDF><cc:Work
       rdf:about=""><dc:format>image/svg+xml</dc:format><dc:type
         rdf:resource="http://purl.org/dc/dcmitype/StillImage" /><dc:title></dc:title></cc:Work></rdf:RDF></metadata><defs
   id="defs17" />
<g
   transform="translate(-750,-933.653)"
   id="g12">
	<path
   style="clip-rule:evenodd;fill:#1b3771;fill-rule:evenodd"
   id="path2"
   d="M 750,1566.36 H 1750 V 933.653 H 750 Z" />
	<path
   style="clip-rule:evenodd;fill:#e9b040;fill-rule:evenodd"
   id="path4"
   d="m 1250.808,1452.145 c 48.251,43.978 113.134,70.777 183.382,70.777 151.205,0 273.454,-122.255 273.454,-273.465 0,-150.665 -122.243,-273.454 -273.454,-273.454 -70.248,0 -135.125,26.811 -183.382,70.778 -55.232,50.396 -90.083,122.249 -90.083,202.677 -10e-4,80.444 34.85,152.826 90.083,202.687 z" />
	<path
   style="clip-rule:evenodd;fill:#cc2131;fill-rule:evenodd"
   id="path6"
   d="m 1339.276,1220.513 c -1.086,-9.73 -2.697,-19.394 -4.825,-28.951 H 1167.16 c 2.181,-9.784 4.866,-19.449 8.046,-28.956 h 151.205 c -3.287,-9.827 -7.044,-19.49 -11.26,-28.956 h -128.69 c 4.948,-9.876 10.315,-19.537 16.086,-28.956 h 96.513 c -5.992,-10.319 -12.995,-20.017 -20.905,-28.951 h -54.698 c 8.046,-10.191 17.696,-19.841 27.346,-28.951 -48.257,-43.972 -112.604,-70.777 -183.382,-70.777 -151.205,0 -273.46,122.789 -273.46,273.454 0,151.205 122.255,273.465 273.46,273.465 70.778,0 135.12,-26.805 183.382,-70.777 9.645,-9.115 19.306,-18.76 27.881,-28.951 h -55.233 c -7.567,-9.204 -14.551,-18.874 -20.911,-28.951 h 96.519 c 5.993,-9.291 11.368,-18.966 16.091,-28.962 h -128.69 c -4.396,-9.388 -8.158,-19.06 -11.26,-28.95 h 151.205 c 3.174,-9.51 5.859,-19.177 8.046,-28.962 2.145,-9.645 3.744,-19.306 4.825,-28.951 2.145,-19.246 2.145,-38.671 0,-57.917 z" />
	<path
   style="clip-rule:evenodd;fill:#1b3771;fill-rule:evenodd"
   id="path8"
   d="m 1158.044,1328.292 c -9.115,2.68 -15.551,3.755 -22.521,3.755 -13.94,0 -22.521,-8.58 -22.521,-24.672 0,-3.209 0.535,-6.435 1.07,-10.179 l 1.605,-10.726 1.61,-9.127 12.871,-77.207 h 28.416 l -3.215,17.155 h 17.696 l -4.29,28.421 h -17.69 l -8.046,46.111 c 0,1.61 -0.535,3.209 -0.535,4.29 0,5.901 3.215,8.581 10.191,8.581 3.755,0 5.9,-0.535 9.115,-1.075 z m 91.689,-1.081 c -9.88,3.174 -20.19,4.805 -30.567,4.836 -31.636,0 -50.402,-17.161 -50.402,-50.407 0,-38.601 21.986,-67.557 52.012,-67.557 24.131,0 39.676,16.086 39.676,41.286 0,8.046 -1.07,16.091 -3.744,27.881 h -58.988 v 3.22 c 0,13.4 8.58,19.835 25.736,19.835 10.726,0 20.376,-2.145 31.101,-6.97 z m -17.696,-67.022 v -5.354 c 0,-9.115 -5.36,-14.475 -13.94,-14.475 -9.65,0 -16.085,6.97 -18.765,19.835 h 32.706 l -10e-4,-0.01 z m -300.806,69.713 H 901.74 l 17.161,-106.704 -38.072,106.704 h -20.37 l -2.145,-106.169 -18.236,106.169 h -28.416 l 23.056,-138.881 h 42.356 l 1.616,85.793 28.416,-85.793 h 47.187 z m 71.318,-50.407 c -3.215,0 -3.755,-0.535 -5.9,-0.535 -16.62,0 -25.201,6.435 -25.201,17.161 0,7.499 4.284,11.801 10.72,11.801 14.481,0 19.841,-11.807 20.381,-28.427 z m 23.591,50.407 h -25.736 l 0.535,-11.801 c -6.435,9.115 -15.016,13.946 -31.101,13.946 -14.475,0 -26.271,-12.871 -26.271,-31.107 0,-5.354 1.07,-10.179 2.139,-14.47 4.825,-17.701 22.521,-28.427 49.332,-28.962 3.215,0 8.58,0 12.865,0.535 1.07,-3.744 1.07,-5.354 1.07,-7.499 0,-7.505 -5.895,-9.65 -19.835,-9.65 -8.58,0 -17.69,1.61 -24.666,3.215 l -3.75,1.61 h -2.145 l 4.29,-25.201 c 13.94,-4.29 23.591,-5.901 34.316,-5.901 25.736,0 39.141,11.26 39.141,33.246 0,5.354 0.535,9.645 -1.61,21.98 l -5.895,40.217 -1.07,6.97 -1.07,5.889 v 3.755 z m 366.223,-111.529 c 8.034,0 15.545,2.139 26.271,7.505 l 4.825,-30.567 c -2.68,-1.07 -3.221,-1.07 -6.97,-2.68 l -12.336,-2.68 c -3.755,-1.07 -8.046,-1.605 -13.4,-1.605 -14.481,0 -23.062,0 -32.171,5.895 -4.825,2.68 -10.726,6.97 -17.69,14.481 l -3.221,-1.075 -30.561,21.451 1.61,-11.795 h -31.642 l -17.69,112.604 h 29.497 l 10.726,-60.587 c 0,0 4.29,-8.58 6.435,-11.266 5.354,-6.97 10.179,-6.97 16.08,-6.97 h 2.145 c -0.535,6.435 -1.075,13.946 -1.075,21.451 0,36.996 20.916,60.057 53.087,60.057 8.046,0 15.016,-1.075 25.736,-4.29 l 5.354,-31.642 c -9.644,4.836 -17.69,6.97 -25.195,6.97 -17.161,0 -27.352,-12.324 -27.352,-33.776 0,-30.035 15.01,-51.481 37.537,-51.481 z m 250.393,-27.352 -6.435,39.682 c -6.97,-10.726 -15.545,-15.551 -26.805,-15.551 -15.545,0 -30.026,8.58 -39.141,25.201 l -18.771,-11.26 1.61,-11.795 h -31.642 l -18.225,112.604 h 30.026 l 9.645,-60.587 c 0,0 7.511,-8.581 9.656,-11.266 4.29,-5.354 9.115,-6.97 12.871,-6.97 -3.561,10.724 -5.373,21.952 -5.366,33.252 0,28.416 15.016,47.176 36.461,47.176 10.725,0 19.306,-3.744 27.352,-12.859 l -1.61,11.26 h 28.416 l 22.526,-138.881 h -30.566 v -0.01 z m -35.915,112.064 c -10.191,0 -15.016,-6.97 -15.016,-21.98 0,-21.98 9.115,-38.066 23.05,-38.066 10.191,0 15.556,8.04 15.556,22.521 0,21.98 -9.656,37.525 -23.59,37.525 z m -136.736,-23.59 c -3.209,0 -3.744,-0.535 -5.889,-0.535 -16.626,0 -25.207,6.435 -25.207,17.161 0,7.499 4.29,11.801 10.726,11.801 14.475,0 19.835,-11.807 20.37,-28.427 z m 23.591,50.407 h -25.724 l 0.535,-11.801 c -6.435,9.115 -15.016,13.946 -31.107,13.946 -14.47,0 -27.34,-12.336 -27.34,-31.107 0.535,-26.805 20.37,-43.432 52.541,-43.432 3.22,0 8.58,0 12.871,0.535 1.075,-3.744 1.075,-5.354 1.075,-7.499 0,-7.505 -5.901,-9.65 -19.847,-9.65 -8.58,0 -18.225,1.61 -24.66,3.215 l -4.29,1.61 h -1.61 l 4.29,-25.201 c 13.946,-4.29 23.591,-5.901 34.316,-5.901 25.736,0 39.141,11.26 39.141,33.246 0,5.354 0.535,9.645 -1.61,21.98 l -5.889,40.217 -1.075,6.97 -1.07,5.889 -0.546,3.755 v 3.228 z m -405.894,-88.473 c 5.901,0 13.94,0.535 22.521,1.61 l 4.29,-26.276 c -8.58,-1.07 -19.835,-2.145 -26.805,-2.145 -32.712,0 -43.966,17.696 -43.966,38.606 0,13.4 6.43,23.591 21.98,30.561 12.33,5.9 14.475,6.982 14.475,11.801 0,6.97 -6.435,11.26 -18.231,11.26 -8.575,0 -16.62,-1.61 -26.276,-4.29 l -3.215,25.736 h 0.541 l 5.36,1.075 c 1.604,0.535 4.29,1.07 7.505,1.07 7.505,1.07 13.4,1.07 17.155,1.07 32.712,0 46.652,-12.324 46.652,-37.531 0,-15.545 -7.505,-24.66 -22.521,-31.096 -12.33,-5.9 -13.94,-6.435 -13.94,-11.801 0,-5.36 5.36,-9.65 14.475,-9.65 z" />
	<path
   style="clip-rule:evenodd;fill:#ffffff;fill-rule:evenodd"
   id="path10"
   d="m 1431.504,1186.737 -4.836,30.026 c -10.726,-5.36 -18.225,-7.505 -26.271,-7.505 -22.515,0 -38.06,21.451 -38.06,52.012 0,20.916 10.726,33.776 27.87,33.776 7.511,0 15.556,-2.134 25.207,-6.97 l -5.354,31.642 c -10.726,2.68 -17.69,3.755 -26.271,3.755 -31.642,0 -51.477,-22.526 -51.477,-59.523 0,-49.867 27.34,-84.177 66.482,-84.177 5.366,0 9.656,0.535 13.411,1.07 l 12.324,3.215 c 3.755,1.603 4.289,1.603 6.975,2.679 z m -94.903,20.911 c -1.075,-0.535 -2.145,-0.535 -3.22,-0.535 -9.645,0 -15.016,4.825 -24.125,18.231 l 2.68,-17.161 h -27.34 l -17.702,113.139 h 29.497 c 10.726,-69.167 13.4,-80.968 27.881,-80.968 h 2.145 c 2.68,-13.406 5.901,-23.591 11.26,-32.712 h -1.075 v 0.01 z m -171.051,112.063 c -8.046,2.68 -14.475,3.755 -21.451,3.755 -15.016,0 -23.591,-8.58 -23.591,-24.672 0,-3.209 0.535,-6.435 1.07,-10.179 l 1.605,-11.266 1.61,-8.58 12.871,-77.207 h 29.491 l -3.215,16.62 h 15.016 l -4.29,27.881 h -15.01 l -8.046,46.652 c 0,2.145 -0.535,3.755 -0.535,4.825 0,5.901 3.215,8.58 10.191,8.58 3.755,0 5.9,-0.535 8.046,-1.075 z m -114.209,-75.602 c 0,13.935 6.97,24.125 22.521,31.096 12.33,5.9 13.94,7.511 13.94,12.871 0,6.97 -5.36,10.191 -17.161,10.191 -8.58,0 -16.62,-1.61 -26.276,-4.825 l -4.29,26.271 h 1.61 l 5.366,1.075 c 2.432,0.738 4.963,1.099 7.505,1.07 6.97,0.535 12.871,1.07 16.62,1.07 31.101,0 45.577,-11.79 45.577,-37.531 0,-15.545 -5.895,-24.66 -20.911,-31.642 -12.336,-5.354 -13.94,-6.964 -13.94,-11.79 0,-6.435 4.825,-9.65 14.475,-9.65 5.901,0 13.94,1.07 21.445,2.145 l 4.29,-26.276 c -7.505,-1.07 -19.306,-2.145 -26.271,-2.145 -33.24,0 -44.5,17.159 -44.5,38.07 z m 606.977,77.213 h -28.416 l 1.599,-11.26 c -8.046,8.58 -16.626,12.324 -27.352,12.324 -21.44,0 -35.915,-18.225 -35.915,-46.641 0,-37.537 21.98,-69.173 48.251,-69.173 11.801,0 20.381,4.825 28.416,15.551 l 6.435,-39.682 h 29.497 z m -43.978,-26.817 c 13.946,0 23.591,-15.545 23.591,-38.06 0,-13.946 -5.354,-21.986 -15.545,-21.986 -13.4,0 -23.061,15.545 -23.061,38.066 -10e-4,14.48 4.824,21.98 15.015,21.98 z m -358.178,24.137 c -10.185,3.209 -19.835,4.825 -30.561,4.825 -33.247,0 -50.402,-17.702 -50.402,-50.407 0,-39.135 21.986,-67.557 52.012,-67.557 24.131,0 39.676,16.086 39.676,41.286 0,8.046 -1.07,16.091 -3.209,27.881 h -58.982 c -0.541,1.61 -0.541,2.145 -0.541,3.22 0,12.871 8.581,19.835 26.276,19.835 10.191,0 19.841,-2.145 30.567,-6.97 z m -16.615,-67.034 v -5.895 c 0,-9.115 -4.831,-14.475 -13.94,-14.475 -9.11,0 -16.086,7.505 -18.766,20.37 z m -300.805,69.714 h -29.491 l 17.155,-106.704 -38.072,106.704 h -20.37 l -2.145,-106.169 -18.231,106.169 h -27.346 l 23.056,-138.881 h 42.356 l 1.61,85.793 28.421,-85.793 h 46.111 z m 73.457,-50.408 c -3.221,-0.535 -4.825,-0.535 -6.97,-0.535 -16.62,0 -25.201,5.901 -25.201,17.161 0,6.97 4.285,11.801 10.72,11.801 12.336,0 20.916,-11.801 21.451,-28.427 z m 21.446,50.408 h -24.666 l 0.541,-11.801 c -7.505,9.127 -17.161,13.4 -31.101,13.4 -16.086,0 -26.811,-12.324 -26.811,-30.561 0,-27.34 18.771,-43.432 52.012,-43.432 3.215,0 7.505,0 11.795,0.535 1.07,-3.215 1.07,-4.819 1.07,-6.964 0,-7.505 -4.825,-10.191 -18.766,-10.191 -8.581,0 -18.231,1.07 -24.666,3.215 l -4.29,1.07 -2.68,0.535 4.29,-25.201 c 15.01,-4.29 24.66,-5.901 35.386,-5.901 25.736,0 39.141,11.26 39.141,32.712 0,5.901 -0.541,10.185 -2.686,22.521 l -5.895,40.217 -1.07,6.97 -0.541,5.889 -0.535,3.755 z m 446.116,-50.408 c -3.209,-0.535 -4.825,-0.535 -6.97,-0.535 -16.626,0 -25.207,5.901 -25.207,17.161 0,6.97 4.29,11.801 10.726,11.801 11.795,0 20.916,-11.801 21.451,-28.427 z m 21.445,50.408 h -24.66 l 0.535,-11.801 c -7.511,9.127 -17.69,13.4 -31.107,13.4 -16.08,0 -27.34,-12.324 -27.34,-30.561 0,-27.34 19.306,-43.432 52.541,-43.432 3.209,0 7.511,0 11.79,0.535 1.075,-3.215 1.075,-4.819 1.075,-6.964 0,-7.505 -4.825,-10.191 -18.771,-10.191 -8.58,0 -18.225,1.07 -24.66,3.215 l -4.29,1.07 -2.68,0.535 4.29,-25.201 c 15.004,-4.29 24.66,-5.901 35.386,-5.901 25.736,0 39.141,11.26 39.141,32.712 0,5.901 -0.535,10.185 -2.68,22.521 l -5.901,40.217 -1.07,6.97 -1.075,5.889 -0.535,3.755 v 3.232 z m 79.364,-113.674 c -0.546,-0.535 -1.61,-0.535 -2.691,-0.535 -9.645,0 -15.545,4.825 -24.66,18.231 l 2.68,-17.161 h -26.805 l -18.236,113.139 h 30.026 c 10.191,-69.167 13.411,-80.968 27.352,-80.968 h 2.145 c 2.68,-13.406 6.435,-23.591 11.26,-32.712 h -1.07 l -10e-4,0.01 z" />
</g>
</svg>