<?xml version="1.0" encoding="UTF-8" standalone="no"?>
<svg
   xmlns:dc="http://purl.org/dc/elements/1.1/"
   xmlns:cc="http://creativecommons.org/ns#"
   xmlns:rdf="http://www.w3.org/1999/02/22-rdf-syntax-ns#"
   xmlns:svg="http://www.w3.org/2000/svg"
   xmlns="http://www.w3.org/2000/svg"
   xml:space="preserve"
   enable-background="new 0 0 2500 2500"
   viewBox="0 0 1000 632.70801"
   height="632.70801"
   width="1000"
   y="0px"
   x="0px"
   id="Слой_1"
   version="1.1"><metadata
   id="metadata17"><rdf:RDF><cc:Work
       rdf:about=""><dc:format>image/svg+xml</dc:format><dc:type
         rdf:resource="http://purl.org/dc/dcmitype/StillImage" /><dc:title></dc:title></cc:Work></rdf:RDF></metadata><defs
   id="defs15" />
<path
   style="fill:#1d5b99"
   id="path2"
   d="M 983.01,632.708 H 0 V 0 h 1000 v 632.707 h -16.99 z" />
<path
   style="clip-rule:evenodd;fill:#ffffff;fill-rule:evenodd"
   id="path4"
   d="M 983.01,616.738 H 16.99 V 15.97 h 966.02 z" />
<path
   style="clip-rule:evenodd;fill:#1d5b99;fill-rule:evenodd"
   id="path6"
   d="M 366.132,413.919 428.87,219.491 h 55.978 l -62.743,194.428 z m -25.024,-194.375 -50.356,82.424 c -12.814,21.59 -20.313,32.495 -23.915,46.127 h -0.768 c 0.893,-17.285 -1.673,-38.522 -1.912,-50.523 l -5.565,-78.028 h -94.226 l -0.962,5.23 c 24.205,0 38.561,11.429 42.51,34.81 l 18.367,154.334 h 57.992 L 399.537,219.543 h -58.429 z m 435.316,194.375 -1.542,-28.912 -69.89,-0.053 -14.305,28.965 H 629.918 L 740.116,219.86 h 74.59 l 18.657,194.059 z m -6.412,-114.69 c -0.632,-14.37 -1.144,-33.869 -0.114,-45.678 h -0.825 c -3.403,9.653 -18.037,38.64 -24.473,52.892 l -20.825,42.613 h 49.076 z M 543.614,419.443 c -39.517,0 -65.748,-11.782 -84.468,-22.291 l 26.663,-38.271 c 16.814,8.835 30.009,19.034 60.382,19.034 9.758,0 19.17,-2.38 24.518,-11.081 7.778,-12.637 -1.798,-19.451 -23.659,-31.083 l -10.8,-6.599 c -32.416,-20.815 -46.442,-40.592 -31.181,-75.108 9.77,-22.077 35.517,-38.816 78.015,-38.816 29.292,0 56.769,11.915 72.769,23.553 l -30.652,33.789 c -15.625,-11.873 -28.569,-17.879 -43.386,-17.879 -11.812,0 -20.791,4.284 -23.892,10.06 -5.832,10.857 1.889,18.258 18.925,28.195 l 12.836,7.68 c 39.363,23.333 48.729,47.796 38.874,70.658 -16.978,39.378 -50.196,48.159 -84.944,48.159 z" />
<path
   style="clip-rule:evenodd;fill:#e7a83a;fill-rule:evenodd"
   id="path8"
   d="M 959.226,474.303 H 42.476 v 115.288 h 916.75 z" />
<path
   style="clip-rule:evenodd;fill:#1d5b99;fill-rule:evenodd"
   id="path10"
   d="M 957.524,44.716 H 40.78 v 115.293 h 916.744 z" />
</svg>